<svg id="Layer_1" data-name="Layer 1" xmlns="http://www.w3.org/2000/svg" viewBox="0 0 246.35 246.35"><defs><style>.cls-1{fill:#8bb5e0;}.cls-2{fill:#49819b;}.cls-3{fill:#134b99;}.cls-4{fill:#fff;}</style></defs><circle class="cls-1" cx="123.18" cy="123.18" r="123.18"/><path class="cls-2" d="M335.48,331.08c.07-.2.14-.4.22-.6l-.21.6Z" transform="translate(-182.6 -270.5)"/><circle class="cls-3" cx="123.18" cy="123.47" r="106.07"/><path class="cls-4" d="M311.48,373.9q0,14.84-7.71,23.42-7.72,8-22.29,8H262.22a5.59,5.59,0,0,0-5.59,5.6v24a5.58,5.58,0,0,1-5.58,5.59H238.59a2.25,2.25,0,0,1-2.25-2.25V391a3.35,3.35,0,0,1,3.36-3.35h36.64q8,0,11.43-3.43,3.72-3.14,3.71-10.86a16,16,0,0,0-3-10.05l-.84-.86a16,16,0,0,0-10.15-3.09H239.7a3.34,3.34,0,0,1-3.36-3.34v-3.51a10.24,10.24,0,0,1,10.29-10.29h33.43q15.7,0,23.43,8Q311.47,358.18,311.48,373.9Z" transform="translate(-182.6 -270.5)"/><path class="cls-4" d="M378,421H348.28a9.14,9.14,0,0,1-9.14-9.14V350.11A9.15,9.15,0,0,0,330,341h-.85a10.24,10.24,0,0,0-10.29,10.28V430.1a9.15,9.15,0,0,0,9.14,9.15h50A9.15,9.15,0,1,0,378,421Z" transform="translate(-182.6 -270.5)"/></svg>