<svg xmlns="http://www.w3.org/2000/svg" viewBox="0 0 722.67 721.42">
    <defs>
        <style>
            .cls-1{fill:#d39676;}.cls-2,.cls-21,.cls-26,.cls-6{opacity:0.15;}.cls-3{fill:#e4c079;}.cls-4{fill:#3c3c4e;}.cls-17,.cls-23,.cls-27,.cls-5,.cls-6{fill:#fff;}.cls-10,.cls-5{opacity:0.3;}.cls-7{fill:#fcbd92;}.cls-8{fill:#193149;}.cls-9{fill:#1c1f23;}.cls-27,.cls-9{opacity:0.1;}.cls-11{fill:#8eddeb;}.cls-12{fill:#34a4a9;}.cls-13{fill:#44abb0;}.cls-14{fill:#252d3a;}.cls-15{fill:#655567;}.cls-16{fill:#223950;}.cls-17,.cls-19{opacity:0.05;}.cls-18{opacity:0.25;}.cls-19{fill:#ffcbe1;}.cls-20{fill:#535363;}.cls-21{fill:#99e7e1;}.cls-22{opacity:0.2;}.cls-23{opacity:0.07;}.cls-24{fill:#25465b;}.cls-25{fill:#516a80;}
        </style>
    </defs>
    <g id="Work">
        <path class="cls-1"
              d="M594.51,385.72s-4.25,30.2-3,36.59c-5.25-.8-30.13-1.28-34.5-4.95-1.75-8.31,2.12-31.8,5.87-36.6C570.63,380,594.51,385.72,594.51,385.72Z"
              transform="translate(-394.29 -137.96)"/>
        <path class="cls-2"
              d="M591.63,403.44c-1,10.52-1,13.2-1.37,14.22s-31.41-1.84-32.53-3-1.7-8.85,1.23-16.24S592.64,392.8,591.63,403.44Z"
              transform="translate(-394.29 -137.96)"/>
        <path class="cls-3"
              d="M634.47,381c3.13,5.5-.21,18.91-1,25.79s3.63,13,8.13,12.37c-1.75,4.25-13.43,4.48-25.27,6.46s-18.73-4-19-16.83a96.42,96.42,0,0,1,1.75-21.5S631.47,383.37,634.47,381Z"
              transform="translate(-394.29 -137.96)"/>
        <path class="cls-2"
              d="M622.6,384.62c7.36-.7,8.25.88,8.62,1.38s-2,10.12-1.62,19.12,1.41,11.38-4.42,12.63-29.46,10-27.08-11.13S608.71,386,622.6,384.62Z"
              transform="translate(-394.29 -137.96)"/>
        <polygon class="cls-4"
                 points="285.74 289.56 261.03 289.56 261.03 338.99 268.06 344.08 285.74 344.08 303.43 344.08 310.46 338.99 310.46 289.56 285.74 289.56"/>
        <path class="cls-4"
              d="M710.94,470.8h-6.2v-5.09h6.2a1.62,1.62,0,0,0,1.62-1.62V441.63a.78.78,0,0,0-.79-.78h-7v-5.09h12.12a.78.78,0,0,1,.78.78v27.55A6.7,6.7,0,0,1,710.94,470.8Z"
              transform="translate(-394.29 -137.96)"/>
        <polygon class="cls-5"
                 points="285.74 289.56 272.06 289.56 272.06 338.99 275.95 342.08 285.74 342.08 295.54 342.08 299.43 338.99 299.43 289.56 285.74 289.56"/>
        <rect class="cls-5" x="261.03" y="289.56" width="49.42" height="1.42"/>
        <path class="cls-6"
              d="M705.8,470.17l-16.72-9.45a10.61,10.61,0,0,0-3.61-1.48,3.54,3.54,0,0,0-3.47,1.35c-1.16,1.82.27,4.19.12,6.34-.23,3.45-4.25,5.24-7.68,5.64A28.75,28.75,0,0,1,655.37,468l0,0v9l7,5.08h35.37l7-5.08V470.8H707Q706.37,470.5,705.8,470.17Z"
              transform="translate(-394.29 -137.96)"/>
        <path class="cls-6"
              d="M717.64,464.09V445.44c-1.67-1.31-3.37-2.53-5.08-3.66V463a10.8,10.8,0,0,1,2,3.58,4.91,4.91,0,0,1-.18,3.3A6.68,6.68,0,0,0,717.64,464.09Z"
              transform="translate(-394.29 -137.96)"/>
        <path class="cls-6"
              d="M667.85,450.67c1.26.71,2.78,1.44,4.09.82a3,3,0,0,0,1.53-2.92,7.2,7.2,0,0,0-1.21-3.25A24.69,24.69,0,0,0,660,435.07a27.9,27.9,0,0,1-4.68-1.93v10.48l2.93,1.67Z"
              transform="translate(-394.29 -137.96)"/>
        <path class="cls-6"
              d="M677.27,427.52H662c7.36,2.45,16.68,7.59,18.81,8.77a107.12,107.12,0,0,1,23.91,17.85V440.85h6.37c-7.25-4.53-15.43-7.3-23.53-10C684.16,429.68,680.73,428.54,677.27,427.52Z"
              transform="translate(-394.29 -137.96)"/>
        <rect class="cls-5" x="261.03" y="289.56" width="49.42" height="1.42"/>
        <path class="cls-7"
              d="M688.29,459.38c2.5-.89,8.46-4.5,10.12-4.26a4.23,4.23,0,0,1,3.13,5.51c-1.08,3-3.95,2.38-7.22,3.77s-4.7,1-6-.51S686.09,460.17,688.29,459.38Z"
              transform="translate(-394.29 -137.96)"/>
        <path class="cls-7"
              d="M688.29,459.38c-2.07.12-3.31,3.08-3.63,3.75a16.62,16.62,0,0,1-2.32,5c-1.79,2.53,1.34,3.68,4,3.22s4.12-2.27,5.19-5.11S692.64,459.15,688.29,459.38Z"
              transform="translate(-394.29 -137.96)"/>
        <path class="cls-8" d="M676.3,482c0-12.75,12.63-20.44,26.23-20.44,9,0,25,8.44,25,20.44Z"
              transform="translate(-394.29 -137.96)"/>
        <path class="cls-7"
              d="M726.24,464.74c-6.59-1.36-10.16-2.44-11.69-4.22s-5.51-.5-10.37-4.21c-2.11-1.61-4.36-.17-7.7,1s-4.57,1.36-5.29,2.38-2.42,1.66-4.6,2.94c-.51,2.38,1.2,3.18,3.52,3.79a7.25,7.25,0,0,0,6-.81,40.84,40.84,0,0,1,4.7-2.88c1.84,1.19,7.46,2.26,9,3.64a17,17,0,0,1,3.34,4.72c.8,1.5,2.62,3.71,7.33,3.71h14.81c2.39,0,3.12-8.26-2.47-8.26C729.29,466.51,728.92,465.29,726.24,464.74Z"
              transform="translate(-394.29 -137.96)"/>
        <path class="cls-6" d="M690.75,460.12s2.47,0,2.87.94a13.15,13.15,0,0,1-4.3,2.83l-2.73-1.29Z"
              transform="translate(-394.29 -137.96)"/>
        <path class="cls-7"
              d="M728,465.28c9,2.16,12.14,1.84,17.19.9s6.48,8,5.53,10.81-3.31,5-4.58,5-10.52-2.42-16.71-1.63-9.52-3.26-9.52-8.59A6.54,6.54,0,0,1,728,465.28Z"
              transform="translate(-394.29 -137.96)"/>
        <path class="cls-7"
              d="M726.94,464.91c-4.44-1.12-5.16-.28-8,1.27s-2,2.37-6.48,5.63c-4.77,3.48-8.28.82-12.09-.42s-5.82-.59-8.11.62-2.17,4.19-1.85,5.43,3.38,1.64,5.67,2.05,4.13,2.37,9.14,2.27a92.75,92.75,0,0,1,14.26.31c4.9.61,10.78.48,14-2.18s3.49-8,3.49-10.41C737,467.82,731.37,466,726.94,464.91Z"
              transform="translate(-394.29 -137.96)"/>
        <path class="cls-6" d="M699.1,476a5.36,5.36,0,0,1-1.69,3.22s-4.31-.68-5.32-1a8.14,8.14,0,0,1,1.37-3.39Z"
              transform="translate(-394.29 -137.96)"/>
        <path class="cls-2"
              d="M696.09,479.49a6.09,6.09,0,0,1,.62-.21,7,7,0,0,1,1.82-.1c.74.05,1.56.14,2.39.24a17.9,17.9,0,0,0,2.74.17c.51,0,1-.07,1.59-.15s1.27-.12,1.94-.18c1.33-.13,2.75-.25,4.24-.25a38.51,38.51,0,0,1,4.64.15c.8.08,1.6.14,2.4.27l2.33.38a38.49,38.49,0,0,0,4.28.41,19.88,19.88,0,0,0,4.06-.22,9.35,9.35,0,0,0,3.38-1.11s.17-.11.12-.06l.2-.15.39-.3c.17-.17.35-.28.53-.49a7,7,0,0,0,1-1.28,13.93,13.93,0,0,0,1.27-2.7,21.37,21.37,0,0,0,.63-2.32c.29-1.33.41-2.11.41-2.11s0,.78-.08,2.13a16,16,0,0,1-1.28,5.45,7.83,7.83,0,0,1-2.28,2.94,10.35,10.35,0,0,1-3.78,1.75,26.58,26.58,0,0,1-9.07.43c-1.54-.17-3.08-.36-4.61-.44s-3-.1-4.48-.1l-4.2.07c-1.33,0-2.59.1-3.75,0a16,16,0,0,1-5.39-1.53A8.54,8.54,0,0,0,696.09,479.49Z"
              transform="translate(-394.29 -137.96)"/>
        <path class="cls-6"
              d="M719,466.18s0,.17,0,.42-.11.61-.16,1a9.26,9.26,0,0,1-.25,1,11,11,0,0,1-.52,1.09,10.13,10.13,0,0,1-2.37,3.05c-.27.22-.54.44-.82.65l-1,.64c-.3.16-.56.33-.89.49s-.86.39-1.28.54a9.35,9.35,0,0,1-2.57.49,9.6,9.6,0,0,1-2.45-.26,11.82,11.82,0,0,1-2-.8,14.08,14.08,0,0,1-1.5-.92c-.45-.3-.81-.63-1.15-.88l-.86-.68-.75-.62.87.31,2.26.88a13.83,13.83,0,0,0,3.31.9,7.37,7.37,0,0,0,1.93,0,7.75,7.75,0,0,0,1.91-.57c.3-.14.6-.3.89-.46l.84-.54c.53-.38,1.05-.78,1.53-1.18a18.81,18.81,0,0,0,2.46-2.4,7.94,7.94,0,0,1,1.78-1.64A8.9,8.9,0,0,1,719,466.18Z"
              transform="translate(-394.29 -137.96)"/>
        <ellipse class="cls-9" cx="572.25" cy="708.78" rx="126.53" ry="9.79"/>
        <path class="cls-9"
              d="M1071.33,846.74c0,1.76-15.74,3.19-35.15,3.19S1001,848.5,1001,846.74s15.74-3.2,35.15-3.2S1071.33,845,1071.33,846.74Z"
              transform="translate(-394.29 -137.96)"/>
        <path class="cls-9"
              d="M915.19,846.74c0,1.76-15.74,3.19-35.15,3.19s-35.15-1.43-35.15-3.19,15.74-3.2,35.15-3.2S915.19,845,915.19,846.74Z"
              transform="translate(-394.29 -137.96)"/>
        <rect class="cls-8" x="535.74" y="491.33" width="24.68" height="33.71"/>
        <rect class="cls-10" x="535.74" y="519.56" width="24.68" height="5.48"/>
        <rect class="cls-8" x="535.74" y="626.31" width="24.68" height="33.71"/>
        <rect class="cls-11" x="541.27" y="525.03" width="13.62" height="101.27"/>
        <rect class="cls-5" x="548.08" y="525.03" width="6.81" height="101.27"/>
        <polygon class="cls-10" points="554.89 539.57 541.03 553.44 541.27 525.03 554.89 525.03 554.89 539.57"/>
        <rect class="cls-5" x="535.74" y="626.31" width="24.68" height="4.95"/>
        <circle class="cls-8" cx="635.35" cy="696.85" r="11.93"/>
        <path class="cls-11" d="M1037.93,834.81a8.29,8.29,0,1,1-8.29-8.29A8.29,8.29,0,0,1,1037.93,834.81Z"
              transform="translate(-394.29 -137.96)"/>
        <path class="cls-10" d="M1026.5,839.37h5.79l5-7.83a8.29,8.29,0,0,0-14.65-1.12Z"
              transform="translate(-394.29 -137.96)"/>
        <polygon class="cls-8"
                 points="560.42 646.22 644.01 675.29 644.01 684.45 547.96 660.01 551.49 646.22 560.42 646.22"/>
        <polygon class="cls-8" points="644.01 684.45 637.46 699.89 632.47 699.89 632.47 681.51 644.01 684.45"/>
        <polygon class="cls-5" points="644.01 675.29 638.95 675.5 551.49 646.22 560.42 646.22 644.01 675.29"/>
        <circle class="cls-8" cx="460.81" cy="696.85" r="11.93"/>
        <circle class="cls-11" cx="855.1" cy="834.81" r="8.29" transform="translate(-734.13 711.2) rotate(-45)"/>
        <path class="cls-10" d="M858.24,839.37h-5.79l-5-7.83a8.29,8.29,0,0,1,14.65-1.12Z"
              transform="translate(-394.29 -137.96)"/>
        <polygon class="cls-8"
                 points="535.74 646.22 452.16 675.29 452.16 684.45 548.21 660.01 544.68 646.22 535.74 646.22"/>
        <polygon class="cls-8" points="452.16 684.45 458.71 699.89 463.7 699.89 463.7 681.51 452.16 684.45"/>
        <polygon class="cls-5" points="452.16 675.29 453.85 675.5 544.68 646.22 535.74 646.22 452.16 675.29"/>
        <rect class="cls-8" x="543.04" y="697.56" width="9.84" height="23.86" rx="3.41"/>
        <rect class="cls-11" x="545.84" y="697.56" width="4.25" height="23.86"/>
        <rect class="cls-10" x="545.84" y="712.53" width="4.25" height="8.89"/>
        <rect class="cls-10" x="545.84" y="697.56" width="4.25" height="2.85"/>
        <polygon class="cls-8"
                 points="547.96 646.22 541.03 646.22 541.03 706.96 543.04 709.49 543.04 696.68 552.88 696.68 552.88 709.49 554.89 706.96 554.89 646.22 547.96 646.22"/>
        <rect class="cls-5" x="544.92" y="646.22" width="6.57" height="46.03"/>
        <ellipse class="cls-9" cx="367.72" cy="708.78" rx="75.21" ry="5.84"/>
        <path class="cls-9"
              d="M769.79,846.74c0,1.76-16.1,3.19-36,3.19s-36-1.43-36-3.19,16.11-3.2,36-3.2S769.79,845,769.79,846.74Z"
              transform="translate(-394.29 -137.96)"/>
        <path class="cls-12"
              d="M782.78,796.36a24.53,24.53,0,0,0-13.93,6.09s-2.31,12.33-9.16,14.54S748,819.65,745.43,827.8c12.57,4.36,33.11,3.49,38.27-9.19S782.78,796.36,782.78,796.36Z"
              transform="translate(-394.29 -137.96)"/>
        <path class="cls-13"
              d="M796.66,800.35c-1.9,8.42,0,11.79,0,11.79s3.74,14.9,2.27,21.54c-4,5.91-35.56,20.94-90.5,11.38-1.3-13.8,10.11-26.23,26.54-25,15.8-.64,33.15,8.16,40.89-28.6C785.32,782.74,796.66,800.35,796.66,800.35Z"
              transform="translate(-394.29 -137.96)"/>
        <path class="cls-13"
              d="M713,629a14.14,14.14,0,0,1,.78,16.09l-10.36,5.85a17.32,17.32,0,0,1-6.24,6.29c-4,2.14-11.56-1.35-26.33-12.19-18.26-13.41-40-36.64-17.68-58.92,3.52-3.52,14.43,1.27,22.33,9.17,0,0,6,29.15,31.32,27.32A33.66,33.66,0,0,1,713,629Z"
              transform="translate(-394.29 -137.96)"/>
        <path class="cls-12"
              d="M681.64,609.55c1.47,2.3-.53,3.83,1.58,6.15s13.26,11,22.43,8.73c3.79.75,7.38,7.49,7.38,7.49s-1.48-9.1-5.48-11.5c-4.21,1.18-13.06-1.46-17.49-4.93S683.86,608.35,681.64,609.55Z"
              transform="translate(-394.29 -137.96)"/>
        <path class="cls-5"
              d="M670.88,645c14.77,10.84,22.33,14.33,26.33,12.19a15.66,15.66,0,0,0,4.54-3.85h0c-4.54,3.85-25-5.63-38.86-19.54s-22.12-34.35-9.69-47.72C630.92,608.37,652.62,631.6,670.88,645Z"
              transform="translate(-394.29 -137.96)"/>
        <path class="cls-5"
              d="M675.53,595.26c-7.9-7.9-18.81-12.69-22.33-9.17-11.81,11.81-11.26,23.89-5.42,34.63a15,15,0,0,0,4.24-1.36C672.75,609.33,675.53,595.26,675.53,595.26Z"
              transform="translate(-394.29 -137.96)"/>
        <path class="cls-14"
              d="M818.15,579.15c-9.32,21.71-10.11,31.17-47.61,41.71-27.34,7.68-52.22,19.78-63.69,25.78-4.26,2.22-17.63-8.93-2.88-20.3s61-42.14,85.72-74.16c10.34-14.75,16.37-17.67,23-17.67S825.54,561.93,818.15,579.15Z"
              transform="translate(-394.29 -137.96)"/>
        <path class="cls-2"
              d="M706.85,646.64c5-2.65,12.72-6.48,22-10.59h0c-9.87,2.4-18.82-3.92-20.09-5.61s4.43-4.52,1.4-8.76c-2.44,1.79-4.55,3.35-6.24,4.66C689.22,637.71,702.59,648.86,706.85,646.64Z"
              transform="translate(-394.29 -137.96)"/>
        <path class="cls-2"
              d="M818.15,579.15l-2.26,5.38c-.72,1.72-1.59,3.8-2.63,6.17-.55,1.17-1.08,2.45-1.76,3.73l-1,2-1.2,2a35.38,35.38,0,0,1-6.57,7.86,46.85,46.85,0,0,1-9.56,6.3c-1.77.91-3.64,1.71-5.51,2.53s-3.83,1.54-5.81,2.2c-4,1.39-8,2.58-12.11,3.78A323.78,323.78,0,0,0,726,637.37c-5.81,2.61-10.59,4.94-13.91,6.61l-5.2,2.66,1.25-.9c.82-.59,2-1.46,3.57-2.51s3.45-2.34,5.68-3.72,4.72-3,7.52-4.54,5.84-3.34,9.13-5,6.79-3.43,10.44-5.18,7.53-3.35,11.48-5c1-.39,2-.81,3-1.2l3.07-1.12c2.08-.78,4-1.43,6.07-2.13,4.07-1.42,7.86-2.73,11.63-4.14,1.89-.68,3.63-1.5,5.42-2.22s3.45-1.51,5-2.32l2.35-1.18c.8-.37,1.44-.87,2.18-1.25a16.52,16.52,0,0,0,2.05-1.27c.62-.46,1.3-.86,1.9-1.32a33.19,33.19,0,0,0,6.14-6c1.77-2.17,3.07-4.63,4.49-6.7.7-1,1.4-2.07,2.09-3s1.4-1.75,2-2.48a31.2,31.2,0,0,1,3.36-3.27A13.67,13.67,0,0,1,818.15,579.15Z"
              transform="translate(-394.29 -137.96)"/>
        <path class="cls-6"
              d="M704,626.34l1.29-1,3.66-2.73L722.08,613c10.87-8,25.23-18.87,38.71-30.8,1.7-1.47,3.33-3,5-4.53s3.28-3,4.86-4.59c3.22-3,6.21-6.22,9.13-9.26l4.14-4.63c1.38-1.49,2.56-3.1,3.8-4.58l1.8-2.21c.58-.75,1.1-1.51,1.63-2.25,1.08-1.46,2.14-2.87,3.21-4.17a50.53,50.53,0,0,1,6.33-6.66,20.89,20.89,0,0,1,6-3.74,15.39,15.39,0,0,1,4.44-1c1-.08,1.62-.07,1.62-.07l-1.55,1a21.92,21.92,0,0,0-3.53,2.66l-1,.92-1,1.1c-.69.76-1.39,1.59-2.16,2.52a74.38,74.38,0,0,0-5,6.68c-.91,1.33-1.7,2.65-2.63,4.19-.24.39-.47.79-.71,1.19l-.37.59-.18.3-.33.45-1.72,2.43c-.58.82-1.19,1.64-1.81,2.47s-1.24,1.67-1.92,2.47c-1.33,1.62-2.75,3.24-4.16,4.9s-3,3.17-4.59,4.77-3.25,3.08-4.91,4.63c-3.29,3.13-6.84,6-10.39,8.94l-5.35,4.27c-1.8,1.39-3.6,2.76-5.42,4.09-3.63,2.63-7.21,5.21-10.72,7.61s-7,4.61-10.26,6.74-6.45,4-9.36,5.74-5.62,3.28-8,4.68-4.5,2.53-6.22,3.51Z"
              transform="translate(-394.29 -137.96)"/>
        <path class="cls-13"
              d="M707.13,622c4.06-1.38.79,4.31-.55,5.81s-4.19,4.42-12.25,4.5-19.59-11.69-19.59-11.69,5.94-2.83,7.44-7.73C686.76,616.45,696.31,625.67,707.13,622Z"
              transform="translate(-394.29 -137.96)"/>
        <path class="cls-15"
              d="M880.3,331.72C862.46,351.5,856.6,373.43,844,394s-26.23,33.44-33.5,39.5S809.13,482,829.67,482c10,0,22.19-20,42.83-39.82s35.39-42.55,35.39-69.1S890.63,320.26,880.3,331.72Z"
              transform="translate(-394.29 -137.96)"/>
        <path class="cls-6"
              d="M861.81,359.36c-6,11.57-10.89,23.3-17.85,34.61-.65,1-1.29,2.06-1.94,3.06h0c17.84-6.44,38,16.55,40.28,35,12.58-14.2,21.72-29.85,24.61-47.2C892.6,368.78,874.1,352.67,861.81,359.36Z"
              transform="translate(-394.29 -137.96)"/>
        <path class="cls-2"
              d="M828.52,482c.38,0,.76.07,1.15.07,10,0,22.19-20,42.83-39.82s35.39-42.55,35.39-69.1-17.26-52.85-27.59-41.39c-.34.37-.63.74-1,1.11l-9.45,48C868.7,405.19,835.58,444.74,828.52,482Z"
              transform="translate(-394.29 -137.96)"/>
        <path class="cls-6"
              d="M880.3,331.72s-1.13,1.59-3.09,4.39c-.91,1.43-2.12,3.07-3.3,5.12-.6,1-1.28,2.06-1.9,3.23l-2,3.62-2.09,4c-.68,1.4-1.42,2.83-2.11,4.33-1.41,3-2.82,6.18-4.23,9.52-3,6.6-6,13.8-9.45,20.91-.85,1.78-1.78,3.54-2.68,5.3-.47.88-1,1.73-1.46,2.59l-.76,1.33-.75,1.22L845,399.7c-.53.83-1.05,1.65-1.58,2.46-1,1.64-2.19,3.13-3.26,4.66s-2.17,3-3.32,4.36-2.27,2.72-3.41,4c-2.22,2.59-4.49,4.89-6.63,7s-4.13,3.93-6,5.46a42.35,42.35,0,0,1-5.19,3.56,29.81,29.81,0,0,1-3.71,1.81c-.45.18-.81.3-1,.38l-.36.12s1.5-1.23,4-3.51,6-5.66,9.94-10c2-2.15,4-4.54,6.14-7.13s4.23-5.4,6.38-8.34,4.23-6.08,6.24-9.33c1.05-1.6,2-3.29,3-4.94s1.91-3.38,2.8-5.1c3.65-6.86,6.92-13.92,10.15-20.44,1.6-3.27,3.22-6.4,4.81-9.34.79-1.47,1.62-2.87,2.38-4.24s1.6-2.64,2.35-3.88c1.57-2.46,3.05-4.69,4.45-6.59s2.7-3.52,3.72-4.88,2-2.31,2.56-3Z"
              transform="translate(-394.29 -137.96)"/>
        <path class="cls-15"
              d="M829.67,482H747.53c-8.94,0-8.71-18.75-1.83-18.75s22.22-8.58,37.8-17.18,23.06-12.63,32-12.63,17.24,8.13,20.49,20.12C841.36,473.39,833.46,482,829.67,482Z"
              transform="translate(-394.29 -137.96)"/>
        <path class="cls-6"
              d="M756.62,482h11.7c1.76-2.16,3.59-6.17,1.27-12.55-2.59-7.12-8.38-9.16-12.66-9.53-4.68,2.05-8.59,3.33-11.23,3.33C758,463.28,761.71,475.11,756.62,482Z"
              transform="translate(-394.29 -137.96)"/>
        <path class="cls-2"
              d="M837.26,459.48c-1.86,8.93-8,18.46-20.16,18.46-13.91,0-41.93,1.7-43.82-.32,3.26-5.39-2.85-12.44-2.85-12.44s4,9.89-2.63,12.48S755.26,482,755.26,482h74.41C833.06,482,839.73,475.11,837.26,459.48Z"
              transform="translate(-394.29 -137.96)"/>
        <path class="cls-2"
              d="M745.7,464.54c-6.88,0-7.11,17.49,1.83,17.49h7.73a10.18,10.18,0,0,0,1.37-5C756.53,474.38,753.68,464.54,745.7,464.54Z"
              transform="translate(-394.29 -137.96)"/>
        <path class="cls-16"
              d="M1108,295.32a6.29,6.29,0,0,0-1.2-2.55l-4.4-5.63a5.73,5.73,0,0,0-8.62-.47c-1.3,1.32-2.46,2.53-2.87,3-1,1.17-1.85,2.36-2.88,3.7s-1.92,2.82-3,4.39a33.33,33.33,0,0,0-1.8,3c-7.36,1.92-15.43,3.44-22.66,3.44-19.92,0-46.64-10.88-53-17.26a6.06,6.06,0,0,0-8.62-.44c-1.3,1.23-2.46,2.35-2.87,2.77-1,1.08-1.85,2.19-2.88,3.42s-1.92,2.61-3,4-1.92,3-2.91,4.69a103.12,103.12,0,0,0-9.55,24.21c-1.33,4.66-2.23,9.63-3.25,14.81s-1.69,10.62-2.22,16.27c-1.24,11.3-1.81,23.45-2.05,36.23s0,26.2.09,40q.23,10.35.44,21c0,1.77.07,3.55.11,5.33s0,3.56,0,5.35c0,3.58,0,7.17,0,10.78-.07,7.21-.07,14.47-.43,21.74S969.7,511.77,969,519s-1.63,14.41-3,21.42a117,117,0,0,1-5.59,20.3,52.51,52.51,0,0,1-10.17,17.12c-.54.6-1.12,1.15-1.68,1.72s-1.2,1.06-1.79,1.58l-2,1.56a10.53,10.53,0,0,1-1,.66l-.91.6a50.63,50.63,0,0,1-8.59,4.39,97.78,97.78,0,0,1-19.19,5.12c-6.56,1.18-13.21,1.73-19.72,2.25-13.06.91-25.69.73-37.53.48l-2.21-.05-1.11,0H853.3l-4.33,0c-3.09.09-6.33.16-9.28.45a86.09,86.09,0,0,0-17.43,3A60,60,0,0,0,807,606.25c-1.12.68-2.12,1.49-3.14,2.22l-1.5,1.12c-.47.38-.9.8-1.35,1.19l-2.56,2.36c-.77.81-1.47,1.63-2.17,2.42a52.36,52.36,0,0,0-6.27,8.89l-1.11,1.93c-.29.63-.58,1.22-.85,1.8-.53,1.15-1,2.19-1.45,3.13l-.33.85a4.61,4.61,0,0,0,1,4.87h0l.28.25c.12.11.24.22.37.32,11.16,9.25,68.49,26.81,95.71,29.6a4.75,4.75,0,0,0,.93.37l6.28,1.87a5.3,5.3,0,0,0,6.57-3.46l0-.09a50.54,50.54,0,0,1,6.81-12.71c.47-.59,1-1.21,1.44-1.84l2.57-2.63,0,0,1-.82c.68-.54,1.32-1.17,2.07-1.68a41.16,41.16,0,0,1,10.69-5.42,65,65,0,0,1,14-3c2.58-.35,5.17-.47,7.91-.65l4.33-.13,2.12-.05,2.23,0a388.73,388.73,0,0,0,38.9-2,172.18,172.18,0,0,0,21.23-3.69,94.44,94.44,0,0,0,21.45-7.84,60.91,60.91,0,0,0,10-6.56c.79-.67,1.65-1.37,2.36-2l1-1,.52-.49.34-.32.26-.29c.68-.75,1.4-1.49,2.06-2.27s1.32-1.57,1.93-2.39a73.26,73.26,0,0,0,11-21.67,144.08,144.08,0,0,0,5.47-23.52c1.24-7.94,2-15.95,2.57-23.94,1.07-16,1.28-32,1.38-47.64s-.06-31.11.09-46c0-4,.08-7.92.16-11.83,11.19-63.7,43.38-98.82,43.38-98.82S1118.66,318.59,1108,295.32Z"
              transform="translate(-394.29 -137.96)"/>
        <path class="cls-17"
              d="M1013,309c4.33,13.55,17.29,39.44,64.28,4.92a92.84,92.84,0,0,1,4.9-11.07c.38-.69.74-1.37,1.1-2-7.34,1.92-15.42,3.44-22.65,3.44-19.92,0-46.64-10.88-53-17.26a6.06,6.06,0,0,0-8.62-.44C1002.76,285,1007.72,292.44,1013,309Z"
              transform="translate(-394.29 -137.96)"/>
        <path class="cls-14"
              d="M966,602.21c-57.6,6.21-125.11,12.31-136.8,13.57s-37.51-17.27-25.73-29,72-30.65,118.81-41.4,58.15,13.59,57.2,30.66S974.05,601.35,966,602.21Z"
              transform="translate(-394.29 -137.96)"/>
        <path class="cls-18"
              d="M922.32,545.33c-34,7.82-75.2,19.95-99.64,30.51l2.31,4c26.46,5.63,34.77,16.38,35.4,21.44.36,2.91-16.85,9-37.12,13.85a16.65,16.65,0,0,0,6,.66c11.69-1.26,79.2-7.36,136.8-13.57,8-.86,12.53-9.16,13.48-26.22S969.09,534.59,922.32,545.33Z"
              transform="translate(-394.29 -137.96)"/>
        <path class="cls-15"
              d="M989,312.24c32.85,6.55,61.59,88.05,61.59,143.67a509.76,509.76,0,0,1-10.4,101.34L922.32,545.33s9.17-18,9.17-49.92c0-23.7-36.82-46.61-48.67-58.46s-21-86.75-2.52-105.23S915.05,297.5,989,312.24Z"
              transform="translate(-394.29 -137.96)"/>
        <path class="cls-2"
              d="M922.32,545.33l117.87,11.92a504.66,504.66,0,0,0,10-82.42c-2.75,36.13-10.1,46.84-27.28,44.07-47-7.59-46.77,15.16-95.67,12.12A76.59,76.59,0,0,1,922.32,545.33Z"
              transform="translate(-394.29 -137.96)"/>
        <path class="cls-2"
              d="M1038.93,552.31l-.33-.14c-.22-.09-.55-.22-.94-.42s-.86-.45-1.39-.76-1.13-.56-1.78-.86c-.31-.15-.61-.33-.92-.5s-.73-.3-1.08-.49c-.73-.38-1.47-.79-2.31-1.16s-1.63-.88-2.58-1.27l-1.41-.64c-.48-.21-1-.38-1.54-.57a60.16,60.16,0,0,0-7-2c-2.58-.48-5.29-1-8.19-1.38s-5.9-.78-9-1.07c-1.56-.13-3.13-.24-4.72-.33s-3.2-.19-4.81-.27c-3.22-.14-6.46-.13-9.67-.16s-6.39,0-9.46.1-6.08.1-8.92.2l-8,.2c-2.5.07-4.8,0-6.84,0l-5.28,0c-1.47,0-2.62-.11-3.41-.17l-1.2-.09s1.66-.1,4.54-.4,7-.82,11.92-1.44c9.86-1.23,23-2.88,36.3-3,3.31,0,6.63,0,9.88.22s6.46.49,9.53,1a73.46,73.46,0,0,1,8.74,1.89,48.73,48.73,0,0,1,7.49,2.86c.55.28,1.11.53,1.63.82l1.49.89a24.21,24.21,0,0,1,2.66,1.81,21.68,21.68,0,0,1,2.16,1.81,15,15,0,0,1,1.69,1.71,20.1,20.1,0,0,1,2.09,2.63Z"
              transform="translate(-394.29 -137.96)"/>
        <path class="cls-6"
              d="M1020.08,352.87c-10.55,17.67-40.28,35.22-79,36.68-25.12.94-70.27,2.95-71.16-6.84A185.14,185.14,0,0,0,875,418.86c6.57,7.06,16.94,4.39,37.19,6.66,21.41,2.39,81.88,7.84,111.37-23.29C1029.46,396,1021.4,350.66,1020.08,352.87Z"
              transform="translate(-394.29 -137.96)"/>
        <path class="cls-2"
              d="M1043,408.72c-14.43,9.16-28.22-5.69-28.22-5.69l1.79,25.28s11.69,8.64,14.85,15.27c-.42-7.48-10.75-24-10.75-24S1033.55,421.88,1043,408.72Z"
              transform="translate(-394.29 -137.96)"/>
        <path class="cls-15"
              d="M1000.16,320.45C979.1,320.45,966,351.21,966,426.2c0,25.28,7.58,55.83,26.12,55.83,11.8,0,36.23-70.57,37.92-97.12S1008.17,320.45,1000.16,320.45Z"
              transform="translate(-394.29 -137.96)"/>
        <path class="cls-6"
              d="M971,361.09c-2.56,12.81-4.18,28.9-4.75,48.57,9.51-17.54,56.85-4.16,55.51,13.31,4.48-14.78,7.71-29,8.29-38.06a51.87,51.87,0,0,0-.41-9.88C1020.08,352.87,981.66,351.42,971,361.09Z"
              transform="translate(-394.29 -137.96)"/>
        <path class="cls-6"
              d="M995.71,320.94l-.26.27c-.18.18-.44.45-.79.75-.73.67-1.53,1.5-2.55,2.63-.51.52-1,1.15-1.57,1.81l-.84,1c-.27.37-.54.77-.84,1.13a38.58,38.58,0,0,0-3.6,5.38,63.25,63.25,0,0,0-3.19,7.26c-.53,1.32-1,2.74-1.42,4.19-.2.73-.47,1.46-.7,2.2s-.44,1.51-.67,2.27c-.47,1.53-.89,3.1-1.33,4.7s-.9,3.23-1.3,4.89c-.79,3.33-1.57,6.74-2.27,10.18s-1.28,6.93-1.89,10.37-1.12,6.84-1.58,10.15-1,6.51-1.35,9.57-.79,5.94-1.14,8.61-.72,5.13-1,7.31-.51,4.09-.71,5.66-.4,2.8-.51,3.64-.18,1.29-.18,1.29,0-1.79,0-4.94.09-7.64.25-13c.11-2.69.19-5.61.37-8.69s.36-6.34.61-9.7.57-6.83,1-10.34.84-7.08,1.4-10.63,1.19-7.09,2-10.55,1.64-6.83,2.61-10.05a80.26,80.26,0,0,1,3.37-9.11,48.5,48.5,0,0,1,4.16-7.63,32.41,32.41,0,0,1,4.75-5.6,21.67,21.67,0,0,1,4.61-3.27,18.55,18.55,0,0,1,3.37-1.38Z"
              transform="translate(-394.29 -137.96)"/>
        <path class="cls-2"
              d="M992.16,482l.29-.21a3.21,3.21,0,0,0,.65-.67,13.28,13.28,0,0,0,1.53-2.79c.29-.59.58-1.29.9-2s.68-1.57,1.09-2.42c.79-1.72,1.8-3.63,2.74-5.84s1.9-4.64,2.93-7.22l3.25-8.15,1.77-4.3q.91-2.19,1.86-4.41c1.22-3,2.47-6,3.71-9.06s2.39-6.12,3.58-9.14,2.3-6,3.35-8.92,2.12-5.72,3-8.4,1.83-5.22,2.59-7.58,1.52-4.52,2.1-6.46,1.07-3.64,1.42-5.05.67-2.52.85-3.29.27-1.18.27-1.18,0,.42-.09,1.19-.18,1.92-.37,3.36c-.36,2.89-1.06,7-2.12,11.88a318.86,318.86,0,0,1-10.1,35.16c-4.37,12.57-9.46,24.92-14.33,33.64-2.43,4.36-4.82,7.82-7,9.81a8.34,8.34,0,0,1-2.79,1.87,3.54,3.54,0,0,1-.87.19Z"
              transform="translate(-394.29 -137.96)"/>
        <path class="cls-17"
              d="M880.3,331.72l2.23-2.22c.72-.73,1.63-1.61,2.71-2.63s2.31-2.21,3.77-3.45a67.14,67.14,0,0,1,11.14-8.13c1.18-.62,2.35-1.35,3.63-2l4-1.76c1.38-.57,2.86-1,4.35-1.5a37.26,37.26,0,0,1,4.65-1.25,91.44,91.44,0,0,1,10.08-1.76l5.38-.39c.91-.06,1.83-.15,2.76-.18h2.8l5.72,0,5.85.31c4,.12,8,.67,12,1.05,2.05.18,4.09.49,6.15.8l6.23.9c4.18.62,8.37,1.49,12.61,2.23a35.08,35.08,0,0,1,6.29,1.57,29.26,29.26,0,0,1,3,1.31c.94.54,1.93,1,2.84,1.61a48.85,48.85,0,0,1,9.88,8.56c1.52,1.58,2.85,3.33,4.23,5s2.63,3.5,3.81,5.33c2.46,3.6,4.62,7.38,6.69,11.15a203.15,203.15,0,0,1,10.41,23.05,272.84,272.84,0,0,1,12.34,43.09c1.32,6.44,2.23,12.39,2.92,17.68s1.09,9.93,1.36,13.75.37,6.83.38,8.88,0,3.15,0,3.15l-.2-.81c-.14-.53-.34-1.31-.55-2.33-.45-2-1.08-5-1.85-8.75s-1.63-8.25-2.66-13.44-2.08-11-3.62-17.29-3.38-13.05-5.5-20.13c-1.08-3.53-2.27-7.14-3.55-10.79s-2.57-7.4-4-11.13-3-7.51-4.71-11.25-3.44-7.52-5.34-11.23-4-7.32-6.31-10.8c-1.09-1.78-2.32-3.44-3.5-5.15s-2.49-3.31-3.86-4.8a45.16,45.16,0,0,0-8.78-8c-.79-.56-1.63-1-2.43-1.47a7.37,7.37,0,0,0-1.16-.58l-1.12-.51a4.27,4.27,0,0,0-.6-.27L990,317l-1.55-.46-.39-.11-.2-.06.18,0-.1,0-.79-.16-1.56-.32c-4.18-.82-8.32-1.78-12.44-2.48l-6.13-1c-2-.35-4-.7-6-.91-4-.51-8-1.2-11.82-1.45l-5.74-.51-5.6-.17-2.75-.09c-.9,0-1.8.06-2.69.08l-5.28.19a89.39,89.39,0,0,0-9.86,1.38,39.94,39.94,0,0,0-4.56,1c-1.46.44-2.93.77-4.3,1.26l-4,1.52c-1.28.52-2.45,1.18-3.63,1.74a65.54,65.54,0,0,0-11.36,7.49c-1.5,1.17-2.81,2.27-3.93,3.24s-2.1,1.78-2.86,2.47Z"
              transform="translate(-394.29 -137.96)"/>
        <path class="cls-15"
              d="M992.16,482H891.46c-11,0-8.43-23.91,0-23.91s30.39-3.48,44.1-14.68C952,430,967.45,430,969.93,430c11,0,21.47,10.12,26.06,22.76S996.79,482,992.16,482Z"
              transform="translate(-394.29 -137.96)"/>
        <path class="cls-6"
              d="M901.36,472.32c.89,3.81.77,8-3.78,9.71h11.25c4.33-2.83,5.28-7.52,5.28-11.95,0-5.25-3.79-11.88-12.15-13a67.62,67.62,0,0,1-10.5,1C898.52,458.12,900.2,467.36,901.36,472.32Z"
              transform="translate(-394.29 -137.96)"/>
        <path class="cls-2"
              d="M897.46,467.05c-2.52-8.35-6.7-8.87-10-6.82-4.92,5.84-5,21.8,4,21.8h4.11C900.62,479.43,899.43,473.53,897.46,467.05Z"
              transform="translate(-394.29 -137.96)"/>
        <path class="cls-2"
              d="M996,452.75s.17.49.47,1.41a33.19,33.19,0,0,1,1,4.07,41.35,41.35,0,0,1-.09,14.9,26.28,26.28,0,0,1-1.32,4.65,13.74,13.74,0,0,1-1.15,2.26,4.93,4.93,0,0,1-1.87,1.81,3,3,0,0,1-1.31.18H891.46l1.49-.18c1-.1,2.38-.31,4.19-.48l6.53-.64c2.51-.24,5.36-.57,8.45-.8l10-.78,11.18-.74,11.94-.64c4.07-.23,8.2-.34,12.34-.52s8.26-.33,12.33-.39l6.05-.13c2,0,4,0,5.9,0s3.84,0,5.7.09l2.77.14,1.36.06.34,0h.05l-.25,0a2.4,2.4,0,0,0-.82.26c-.69.4-.35.39-.14.06a11.59,11.59,0,0,0,.86-1.37,20.48,20.48,0,0,0,1.44-3.73,49.91,49.91,0,0,0,1.39-7.54c.11-1.16.32-2.26.4-3.29s.26-2,.33-2.87c.21-1.83.38-3.27.49-4.25.06-.51.1-.93.15-1.2S996,452.75,996,452.75Z"
              transform="translate(-394.29 -137.96)"/>
        <path class="cls-14"
              d="M1040.19,557.25c-11.38,44.65-29.49,58.47-56.46,58.47s-144.94-36.57-165.58-36.57c-15.17,0-18-36-11-43s146.27,0,179.13,4.63S1040.19,557.25,1040.19,557.25Z"
              transform="translate(-394.29 -137.96)"/>
        <path class="cls-6"
              d="M807.13,536.17a3.41,3.41,0,0,1,.49-.35,7.88,7.88,0,0,1,1.67-.63,41.89,41.89,0,0,1,6.69-1.06c5.81-.57,14.16-.86,24.17-.91,20-.09,46.72.73,73.38,2.06,13.33.67,26.66,1.47,39.14,2.37,6.24.45,12.27.93,18,1.45s11.11,1.06,16.07,1.77a188.49,188.49,0,0,1,23.66,5c2.82.78,5,1.46,6.5,1.93l2.28.74h-.64c-.42,0-1,0-1.85-.06-1.62-.06-3.95-.25-6.87-.51l-4.8-.5c-1.72-.26-3.61-.39-5.59-.71-4-.51-8.38-1.18-13.31-1.63s-10.22-.7-15.89-1.09l-8.76-.48c-3-.16-6.05-.42-9.16-.61l-9.48-.61-9.7-.75-9.87-.72-10-.81c-13.28-1-26.58-2-39-2.67-12.47-.91-24.11-1.63-34.09-2-5-.19-9.57-.45-13.62-.53s-7.59-.1-10.5,0a46.62,46.62,0,0,0-6.7.57,8.33,8.33,0,0,0-1.69.49A4.38,4.38,0,0,0,807.13,536.17Z"
              transform="translate(-394.29 -137.96)"/>
        <path class="cls-15"
              d="M960.56,307.69c1.58,4.75-8.69,38.88-44.6,38.88-9.45,0-21.7-28.12-31.68-28.12-4,0-3-19,20-30.66s34.76-11.69,41.4-5.05c1.16,4.42-.15,7.89,4.26,16.11S960.56,307.69,960.56,307.69Z"
              transform="translate(-394.29 -137.96)"/>
        <path class="cls-6"
              d="M960.56,307.69l.06.31a4.46,4.46,0,0,1,.09.9,16.5,16.5,0,0,1-.44,3.41,41.66,41.66,0,0,1-4.54,11.39,46.72,46.72,0,0,1-11.13,13.24,42.1,42.1,0,0,1-8.28,5.23,43.81,43.81,0,0,1-9.56,3.25,48.3,48.3,0,0,1-10,1.13,6.86,6.86,0,0,1-2.47-.27,10.1,10.1,0,0,1-2.21-1.09,24.18,24.18,0,0,1-3.7-3.11,88.33,88.33,0,0,1-6-7l-5.09-6.45c-3.18-4-6.13-7.08-8.65-8.68a9.34,9.34,0,0,0-3.13-1.39,5,5,0,0,0-.9-.12l-.31,0,.31,0a3.91,3.91,0,0,1,.93,0,9,9,0,0,1,3.46,1,26,26,0,0,1,4.65,3.1,61.52,61.52,0,0,1,5.28,4.81c1.81,1.86,3.74,3.88,5.72,6a79.79,79.79,0,0,0,6.28,6.19,18.19,18.19,0,0,0,3.25,2.35,4.63,4.63,0,0,0,1.31.49c.07-.06-.27,0,.36,0h.24l.58-.06a47.34,47.34,0,0,0,9.08-1.54,44.4,44.4,0,0,0,8.35-3.25c.64-.35,1.29-.68,1.92-1.06s1.23-.75,1.82-1.15,1.19-.79,1.76-1.21,1.13-.85,1.68-1.27l1.62-1.31c.51-.46,1-.92,1.54-1.35,1-.91,2-1.84,2.87-2.79A62.64,62.64,0,0,0,952,321.6c1.38-1.89,2.4-3.78,3.4-5.43.47-.83,1-1.59,1.43-2.32s.91-1.39,1.29-2c.81-1.22,1.42-2.22,1.86-2.94a4.62,4.62,0,0,0,.43-.87Z"
              transform="translate(-394.29 -137.96)"/>
        <path class="cls-5"
              d="M945.71,282.74c-4-4-9.85-5.56-18.9-3.64a5.72,5.72,0,0,0-.38,3.16c3.16-.79,7.09-.92,9.32.32,8,4.49-2,16.53-12.8,22.72s-26.54,10-32.7,7.93-1.74-12.94-1.71-13c-7.4,9.35-7,18.23-4.26,18.23,8.18-.95,21.77,2.21,42-8.38S945.71,287.16,945.71,282.74Z"
              transform="translate(-394.29 -137.96)"/>
        <path class="cls-7"
              d="M900.9,313.18A71,71,0,0,0,923,305.3a44.47,44.47,0,0,0,11.95-10c-13.89-12.85-18.58-23-18.58-48.3,0-18.64-49.61,11.69-45.19,27.18C874.43,285.74,892.1,300.26,900.9,313.18Z"
              transform="translate(-394.29 -137.96)"/>
        <path class="cls-2"
              d="M934.9,295.33c-1.88-1.75-3.59-3.44-5.15-5.13.66,9.15-16.82,21.92-24.35,15.36-8.4-7.31-4.88-15.66,2.49-35.92,4.21-11.56,5.46-21.29,4.69-28.17-11.47-3.27-45.13,19.86-41.45,32.74,3.3,11.53,21,26.05,29.77,39A71,71,0,0,0,923,305.3,44.47,44.47,0,0,0,934.9,295.33Z"
              transform="translate(-394.29 -137.96)"/>
        <path class="cls-7"
              d="M920.79,260.86c13.52-16,22.33-19.91,22.33-43.3s-15.07-34.25-30.23-40.13c-14.68-5.68-33.5-8.53-56.17.34-15,5.86-10.72,47.59-2.71,72.45S898.25,287.51,920.79,260.86Z"
              transform="translate(-394.29 -137.96)"/>
        <path class="cls-7"
              d="M918.56,255c-4,15.31-7.2,21.81-25.56,31.86s-30,15.1-38.89,14.46-16.12,0-16.12-5.05.48-20.38-6.16-36.34,1.95-16.86-1.42-26.76-4.21-11.16-1.68-16.43,10.74-29.49,20.64-35.6,33.92-10.75,52-2.74S931.3,206,918.56,255Z"
              transform="translate(-394.29 -137.96)"/>
        <path class="cls-2"
              d="M901.41,178.38c-18.12-8-42.14-3.37-52,2.74a18.4,18.4,0,0,0-3.64,3.08c1.54-.73,3.73-.82,6.8.82,4.85-1.16,13.69-.74,19.91,3.16s11.71-3.81,14.22-2.85-3.69,7.16-3.69,7.16c2.25,3.38.32,15,.32,15l-.42,2.92,9.27-2.92.91,8.46s7.93,12.53,7.72,18.48,3.37,30.54-1.89,35.81-35.82,25.07-40,26.76c-3.53,1.41-15.24,3.11-20.72.29,1,3.93,7.79,3.44,16,4,8.85.64,20.54-4.42,38.89-14.46s21.57-16.55,25.56-31.86C931.3,206,919.52,186.39,901.41,178.38Z"
              transform="translate(-394.29 -137.96)"/>
        <path class="cls-6"
              d="M854.11,301.3l.95-.06a25.83,25.83,0,0,0,2.65-.32,32.7,32.7,0,0,0,4-1c1.52-.45,3.2-1.09,5-1.82s3.74-1.6,5.75-2.6,4.11-2.11,6.25-3.31,4.39-2.39,6.64-3.66,4.54-2.63,6.74-3.95c1.12-.69,2.28-1.37,3.36-2.07s2.15-1.32,3.17-2.06,2.07-1.41,3-2.16,1.9-1.46,2.82-2.19a44.61,44.61,0,0,0,4.67-4.65,37.23,37.23,0,0,0,3.32-4.91c.46-.81.84-1.64,1.23-2.41s.72-1.54,1-2.26c.65-1.43,1.29-2.68,1.84-3.72s1.07-1.83,1.42-2.38c.16-.27.32-.48.42-.62l.16-.21s-.33,1.28-1,3.51c-.31,1.11-.71,2.45-1.22,4-.26.76-.57,1.56-.87,2.41s-.7,1.72-1.13,2.61A32.91,32.91,0,0,1,911.1,273a37,37,0,0,1-4.91,5.17,58.76,58.76,0,0,1-6.15,4.52c-2.17,1.42-4.46,2.74-6.77,4-9.26,5.07-18.69,9.91-26.22,12.44a46.92,46.92,0,0,1-5.2,1.47,33.71,33.71,0,0,1-4.11.66,24.39,24.39,0,0,1-2.68.07Z"
              transform="translate(-394.29 -137.96)"/>
        <path class="cls-14"
              d="M943.12,207.48c1.52-14.72-1.64-17.72-11.59-28.47s-22.12-9.32-22.12-9.32-2.28-6.48-14.33-9.64-19.8-4.58-23-8.37c-5.53,0-8.06,5-8.06,5a33.31,33.31,0,0,0-13.74-2.68c-5.69,0-10.11,7.35-10.43,18-6.32.43-11.06,6.44-7.43,19.39a29.63,29.63,0,0,1,4.43-2.69s5.53-12.32,15.64-3.78c7.9-5.85,18.17,1.26,27.49-1.74s10,6.05,10,6.05Z"
              transform="translate(-394.29 -137.96)"/>
        <path class="cls-14"
              d="M911.94,247.48s.84-11.69-.84-16.8-9.82-9.68-16.18-16c0-8.87,1.43-21.09-4.89-25.31,15.8-2.73,40.13,5.17,53.93,19C948.7,213,947,229.62,947,229.62a28,28,0,0,0-6,7c-10.78,17-6.27,19.81-14,23.49C924.1,251.06,911.94,247.48,911.94,247.48Z"
              transform="translate(-394.29 -137.96)"/>
        <path class="cls-14"
              d="M876.33,216.09a96.94,96.94,0,0,0-9.1-4.08,99.57,99.57,0,0,0-14.94-4.53,7.2,7.2,0,0,0-4.39,3.63,6.42,6.42,0,0,0-.6,2.79c13.26,2.72,23.14,4.52,25.84,4.72,1.88.14,2.6-.33,2.92-.77A2.27,2.27,0,0,0,876.33,216.09Z"
              transform="translate(-394.29 -137.96)"/>
        <path class="cls-14"
              d="M840.52,207.93a16.6,16.6,0,0,0,0,8s-11.43,1.37-14.06,8c-1.11-1.95.65-6.6.65-6.6C829.79,209.6,840.52,207.93,840.52,207.93Z"
              transform="translate(-394.29 -137.96)"/>
        <path class="cls-2"
              d="M861.47,271.56c2.14,1.85,1.28,3.39,1.28,3.39s-.64-2.13-3.09-1.18a30.81,30.81,0,0,1-6.9,2.21c-5.53,1.12-10.12,0-13.82,0-2.48.32-1.81-2.21-1.81-2.21s1.91.87,7.81,1.1,8.18-.79,11.54-2.44S861.47,271.56,861.47,271.56Z"
              transform="translate(-394.29 -137.96)"/>
        <path class="cls-2"
              d="M844.26,281c5.12.39,5.92,1.5,6.16,2.53s-4.82.87-7.66,2.45-2.85-3.16-4.19-5C841,281.53,841.32,280.75,844.26,281Z"
              transform="translate(-394.29 -137.96)"/>
        <path class="cls-7"
              d="M918.61,261.64c7.65,0,10.79-4.56,14.92-15.86s.05-14.29-3.63-16.6-9.47,2.46-9.47,2.46l-3.64,29.22A2,2,0,0,0,918.61,261.64Z"
              transform="translate(-394.29 -137.96)"/>
        <path class="cls-6"
              d="M918.61,261.64l.59-.11a13.83,13.83,0,0,0,1.63-.39,10.56,10.56,0,0,0,2.32-.93,9.87,9.87,0,0,0,2.42-1.94,13.74,13.74,0,0,0,2.09-3,30,30,0,0,0,1.66-3.91c.54-1.39,1-2.88,1.5-4.4l.69-2.26c.21-.77.49-1.63.6-2.31a21.64,21.64,0,0,0,.55-4.26,8.52,8.52,0,0,0-.64-3.4,7.63,7.63,0,0,0-2-2.5c-.22-.2-.49-.39-.72-.58l-.39-.29-.19-.15-.05,0h0l.19.1h0l-.11-.07-.42-.26-.11-.07h0a.05.05,0,0,1,0,0s0,0-.1-.07l-.26-.06a6.18,6.18,0,0,0-2.51.12l-2.4.47c-1.43.27-2.43.36-2.43.36a17.28,17.28,0,0,1,4.19-2.46,7.55,7.55,0,0,1,3.29-.61,6.74,6.74,0,0,1,3.57,1.67,9,9,0,0,1,2.91,3.32,9.66,9.66,0,0,1,.85,4.64,20.79,20.79,0,0,1-.83,4.85c-.44,1.59-1,3.14-1.6,4.66s-1.19,3-1.85,4.4a29.74,29.74,0,0,1-2.13,3.92,14.39,14.39,0,0,1-2.58,3,9.72,9.72,0,0,1-2.86,1.76,10.9,10.9,0,0,1-2.52.65,12.93,12.93,0,0,1-1.67.15Z"
              transform="translate(-394.29 -137.96)"/>
        <path class="cls-19"
              d="M890,189.33l2.51-.32c.8-.12,1.78-.1,2.9-.17s2.39,0,3.77,0,2.88.22,4.45.4,3.22.45,4.91.84,3.42.8,5.17,1.26c.88.24,1.74.54,2.62.81s1.75.55,2.61.89l2.59,1,2.52,1.07c1.66.72,3.25,1.54,4.79,2.32s3,1.61,4.32,2.48l1.95,1.23,1.76,1.25c1.14.78,2.13,1.57,3,2.29a27,27,0,0,1,2.2,1.89l1.86,1.72-.69-.24c-.42-.18-1.09-.39-1.84-.74s-1.72-.69-2.75-1.14l-3.47-1.43c-1.24-.53-2.61-1-4-1.6s-2.91-1.11-4.41-1.75l-4.69-1.79c-.8-.31-1.61-.57-2.4-.91l-2.44-.87c-.8-.33-1.61-.61-2.43-.87s-1.61-.61-2.41-.87-1.61-.52-2.4-.81-1.58-.49-2.35-.77c-1.54-.54-3-1-4.49-1.46-.71-.27-1.42-.4-2.1-.64s-1.36-.48-2-.63-1.26-.32-1.86-.51a16.79,16.79,0,0,0-1.69-.49c-1.06-.23-2-.62-2.85-.76s-1.5-.37-1.95-.47S890,189.33,890,189.33Z"
              transform="translate(-394.29 -137.96)"/>
        <path class="cls-14"
              d="M842.44,227.24l-21.19,1.3v2.82l.42.85s.52,8.55,1.58,9.82,14.23,1.54,16.55-1.2-.19-10,2.64-10Z"
              transform="translate(-394.29 -137.96)"/>
        <path class="cls-7"
              d="M851.58,253.9c1.64,1.64.85,3.16,0,5.59s-2.87,2.21-5.38,1.58-10.84,1.36-15.58-3.38c-2.37-2.37.74-4.21,3.06-7.79s2-5.69,5.79-10.74,3.47-9.69,1.68-12.43a6.87,6.87,0,0,1,9.27,0C850.85,234.21,851.58,253.9,851.58,253.9Z"
              transform="translate(-394.29 -137.96)"/>
        <path class="cls-2"
              d="M846.72,257.7c-2-.32-6.12.15-9.52.08-2.75-.07-5.67-.19-7.39-2.22a2.28,2.28,0,0,0,.81,2.13c4.74,4.74,13.06,2.74,15.58,3.38s4.54.84,5.38-1.58,1.64-4,0-5.59c.08,1.27-1.26,2.69-1.74,3.8S848.73,258,846.72,257.7Z"
              transform="translate(-394.29 -137.96)"/>
        <path class="cls-6"
              d="M830.62,257.69l-.26-.29a2.62,2.62,0,0,1-.52-1,2.32,2.32,0,0,1,.26-1.66,10.43,10.43,0,0,1,1.26-1.84,25.28,25.28,0,0,0,3.2-4.56c.94-1.81,1.59-3.92,2.68-5.81a26.5,26.5,0,0,1,1.74-2.74,27.91,27.91,0,0,0,1.76-2.62,12.65,12.65,0,0,0,1.67-5.28,8.83,8.83,0,0,0-.58-3.87,5.91,5.91,0,0,0-.48-1l-.2-.33.28.29a5.29,5.29,0,0,1,.71.92,8.05,8.05,0,0,1,.8,1.66,8.6,8.6,0,0,1,.51,2.4,13.94,13.94,0,0,1-1.13,6.1c-.24.5-.55,1.15-.8,1.56s-.53.93-.8,1.41c-.49.88-1,1.75-1.39,2.65s-.73,1.81-1.1,2.78a18.53,18.53,0,0,1-1.34,3.09A11.53,11.53,0,0,1,836,251c-.35.48-.69.9-1,1.29a22.33,22.33,0,0,1-2,1.95c-.59.53-1,1-1.36,1.27s-.56.34-.77.62a1.63,1.63,0,0,0-.26,1A4.4,4.4,0,0,1,830.62,257.69Z"
              transform="translate(-394.29 -137.96)"/>
        <path class="cls-2"
              d="M842.07,230.89c1.35,0,2.44.59,8.38,12,2.48,1.77,23.64,3.75,23.64,3.75l-1.73-2.85a33.25,33.25,0,0,0,6.32-.59c2.45-.59,4.82-7.62,4.82-7.62l36.77-2.7.16-1.24-41.51-3.14L843.09,230Z"
              transform="translate(-394.29 -137.96)"/>
        <path class="cls-14"
              d="M840.65,227.35l36.53-2.72,3.93.85v5.13l-2.19.15s-1.69,8.11-4,10.43-18.49,1.76-22.39.92-5.23-11.27-10.09-11.27Z"
              transform="translate(-394.29 -137.96)"/>
        <path class="cls-11"
              d="M874.09,228.07c0,3.79,0,11.11-2.86,11.54s-15.54,1.55-18.49-.24-4.31-9.09-3.73-9.76S874.09,228.07,874.09,228.07Z"
              transform="translate(-394.29 -137.96)"/>
        <polygon class="cls-20" points="526.14 93.68 486.82 87.52 486.82 92.65 525.99 94.92 526.14 93.68"/>
        <polygon class="cls-5" points="490.68 88.12 492.05 90.35 508.58 92.23 507.9 90.82 490.68 88.12"/>
        <path class="cls-11"
              d="M837.17,230.23a108.08,108.08,0,0,0-13.95.69s.32,9.05,1.66,9.76,13.52.23,14-1.86c.34-1.51-.44-5.27-.76-7.25A1.69,1.69,0,0,0,837.17,230.23Z"
              transform="translate(-394.29 -137.96)"/>
        <path class="cls-5"
              d="M828,230.48l2.25,10.46a38.77,38.77,0,0,0,5.51-.63l-2.8-10.1C831.25,230.26,829.52,230.37,828,230.48Z"
              transform="translate(-394.29 -137.96)"/>
        <path class="cls-5"
              d="M860,237.82c-4.8,0-5.87-.59-5.92-.61-1.1-.67-2.09-3.53-2.48-5.46,3.61-.33,11.87-.74,20-1.05-.12,4.2-.56,5.85-1,6.45A95.5,95.5,0,0,1,860,237.82Z"
              transform="translate(-394.29 -137.96)"/>
        <path class="cls-5"
              d="M828.12,238.46c-.68,0-1.2,0-1.58,0a38.22,38.22,0,0,1-.66-5.23c2.36-.21,6-.49,9.09-.49h.76c0,.14,0,.3.08.46.17,1,.54,3.15.61,4.37a33.31,33.31,0,0,1-8.3.92Z"
              transform="translate(-394.29 -137.96)"/>
        <path class="cls-5"
              d="M871.79,239.41l-8-10.91c-3.72.17-7.7.37-10.58.59l5.57,11.24a92.49,92.49,0,0,0,12.5-.72A1.88,1.88,0,0,0,871.79,239.41Z"
              transform="translate(-394.29 -137.96)"/>
        <polygon class="cls-5"
                 points="446.37 89.39 426.96 90.58 426.96 91.23 481.47 88.12 482.57 92.74 482.89 86.68 446.37 89.39 446.37 89.39"/>
        <polygon class="cls-2" points="495.74 105.83 490.98 112.89 477.24 120.27 492.65 117.03 495.74 105.83"/>
        <path class="cls-21"
              d="M877.21,183c4.4.15,3.67-11.84-1.56-18s-5.61-10.28-4.48-12.71c-2.25.93-3.37,4.67-2.81,6.35-1.12-.18-1.54-2.52-1.21-3.08-1.22.28-2.76,2.06-2.85,4.58-2.76-2.76-12-5.85-16.74-5s-8.44,13-7.13,19.8,10.28,8.32,16.35,4.3c-3.46,1.12-9.16,0-10.56-5.32s3-10.19,7.48-8.88,8.78,7.85,8.5,11.58-2.18,4.86-2.18,4.86,5.35.94,7.13-1.87,2.61-6.91.56-11.86c0,0,8.59,5,4.2,14.48,2.34-1.49,5.63-3.93,4.5-11.59C878.55,171.55,880.51,182.38,877.21,183Z"
              transform="translate(-394.29 -137.96)"/>
        <path class="cls-21"
              d="M838.78,175.12c-3.17,2.18-5.54,8.66-5.48,14.26-3.11-5.85-1.49-16.5,6.17-16.44A3,3,0,0,1,838.78,175.12Z"
              transform="translate(-394.29 -137.96)"/>
        <path class="cls-6"
              d="M891.46,458.12a49.12,49.12,0,0,0,5.21-.31,93.2,93.2,0,0,0,13.52-2.47,78,78,0,0,0,18.09-7c1.56-.87,3.1-1.81,4.61-2.86s2.92-2.24,4.41-3.36a61.29,61.29,0,0,1,9.55-6.07,53.35,53.35,0,0,1,21.31-6,20.39,20.39,0,0,1,10,1.81,28.69,28.69,0,0,1,7.58,5.14,39.48,39.48,0,0,1,8.18,11c.76,1.48,1.26,2.69,1.6,3.51l.48,1.28s-.25-.41-.74-1.18-1.27-1.82-2.23-3.15a54.91,54.91,0,0,0-3.76-4.48,44.6,44.6,0,0,0-5.49-4.84,29,29,0,0,0-7.16-3.82,16.85,16.85,0,0,0-4-.88c-.34,0-.68,0-1-.06h-1.78s.21,0,.08,0h-.07l-.3,0c-.39,0-.77.05-1.17.1a51,51,0,0,0-9.67,2.09,52.86,52.86,0,0,0-9.53,4c-.76.43-1.56.79-2.32,1.22l-2.26,1.31c-.73.45-1.4.92-2.11,1.37-.35.24-.68.42-1.06.71l-1.12.84-2.18,1.63c-.82.63-1.68,1.17-2.52,1.73a57.53,57.53,0,0,1-5.14,2.89,56.24,56.24,0,0,1-10.16,3.91c-1.65.48-3.25.9-4.82,1.24s-3.09.57-4.55.79a66.89,66.89,0,0,1-8,.74,57.7,57.7,0,0,1-6.17-.08,36.84,36.84,0,0,1-3.94-.45C891.93,458.22,891.46,458.12,891.46,458.12Z"
              transform="translate(-394.29 -137.96)"/>
        <path class="cls-6"
              d="M921.88,437.62,919.5,437c-.8-.21-1.59-.46-2.4-.61l-2.42-.51c-.8-.2-1.63-.28-2.44-.42s-1.62-.28-2.45-.36l-2.46-.26c-.82-.11-1.64-.12-2.46-.17s-1.65-.11-2.48-.1l-2.47,0-2.47.08c-.83,0-1.65.11-2.47.16s-1.65.17-2.47.25-1.63.22-2.45.33-1.62.29-2.44.43a47.37,47.37,0,0,0-4.8,1.19h0a18,18,0,0,1-3-4.33,44.74,44.74,0,0,1-2.1-4.82,93.26,93.26,0,0,1-3-10.07A169,169,0,0,1,871.11,397a196.46,196.46,0,0,1-1.32-21,136.31,136.31,0,0,1,1.32-21h0a127.7,127.7,0,0,1,5.57-14.66,72.85,72.85,0,0,1,3.6-7,32.7,32.7,0,0,1,4.67-6.29l-.72,1.95c-.21.66-.46,1.25-.65,1.89l-1.22,3.69q-.3.9-.57,1.83l-.61,1.8-.58,1.81-.62,1.79c-.78,2.41-1.67,4.79-2.38,7.23-.37,1.22-.72,2.44-1.06,3.66l-.48,1.84-.44,1.79.15-.66c-.35,3.32-.53,6.69-.59,10.07,0,1.69-.1,3.38-.11,5.07s0,3.4,0,5.1l.11,5.11c0,1.7.08,3.41.15,5.11s.18,3.42.3,5.12l.37,5.12c.27,3.41.64,6.82,1.11,10.2s1,6.75,1.66,10.09a91.16,91.16,0,0,0,2.44,9.77c.52,1.56,1,3.12,1.68,4.55a15.8,15.8,0,0,0,2.12,3.7l-3.18-.74c1-.27,1.8-.44,2.68-.6s1.72-.29,2.57-.42,1.72-.22,2.57-.28,1.72-.16,2.57-.18,1.71-.1,2.57-.09,1.7,0,2.55,0l2.55.08,2.54.23c.84.06,1.68.19,2.52.31s1.68.2,2.5.38l2.49.47c.82.15,1.63.38,2.45.57s1.63.37,2.43.63,1.61.47,2.41.74,1.56.56,2.34.86Z"
              transform="translate(-394.29 -137.96)"/>
        <path class="cls-6"
              d="M783.5,446.1l6.71-3.68c2-1.09,4.38-2.35,6.95-3.62a71.26,71.26,0,0,1,8.26-3.55,34.56,34.56,0,0,1,4.4-1.2,27.87,27.87,0,0,1,4.38-.54,15.91,15.91,0,0,1,4.12.24,16.79,16.79,0,0,1,3.53,1.11,19.74,19.74,0,0,1,4.67,2.95,20.88,20.88,0,0,1,1.55,1.42l-2-.84c-.63-.26-1.4-.53-2.25-.82s-1.82-.51-2.82-.72a22,22,0,0,0-3.18-.33,9.5,9.5,0,0,0-1.56.09l-.53.06-.26,0h0l-.11,0-.95.13c-.63.1-1.26.22-1.89.34s-1.27.28-1.92.45c-1.28.33-2.59.74-3.9,1.19-2.64.9-5.36,2-8,3-1.31.5-2.62.94-3.86,1.37s-2.43.82-3.55,1.16-2.15.62-3.08.85-1.77.41-2.45.55-1.25.22-1.62.29Z"
              transform="translate(-394.29 -137.96)"/>
        <rect class="cls-16" y="344.08" width="566.27" height="19.38"/>
        <rect class="cls-6" y="344.08" width="566.27" height="2.32"/>
        <rect class="cls-22" y="361.13" width="566.27" height="2.32"/>
        <rect class="cls-6" x="256.27" y="344.08" width="310" height="19.38"/>
        <rect class="cls-23" y="344.08" width="3.77" height="19.38"/>
        <rect class="cls-23" x="256.27" y="344.08" width="3.77" height="19.38"/>
        <path class="cls-2"
              d="M837.48,435.37c-13.59-8.06-27-1.9-27-1.9s17.06-2.05,28.28,12c-.47-4.74-8.21-11.06-8.21-11.06Z"
              transform="translate(-394.29 -137.96)"/>
        <path class="cls-5"
              d="M884.28,318.45l.87-.21c.56-.15,1.41-.32,2.5-.49l3.91-.5c1.5-.19,3.18-.44,5-.69s3.74-.61,5.75-1,4.11-1,6.23-1.64c1.05-.35,2.13-.7,3.2-1.07s2.14-.82,3.21-1.28,2.13-.93,3.19-1.43,2.12-1,3.16-1.57l3.09-1.73,3-1.82c1-.63,1.81-1.26,2.71-1.86s1.73-1.27,2.58-1.88,1.54-1.36,2.34-2,1.45-1.31,2.1-2,1.25-1.35,1.77-2l.82-1,.68-1a21,21,0,0,0,1.17-2c.26-.68.67-1.29.9-1.92a7.23,7.23,0,0,1,.42-.89l.38-.86c.28-.55.49-1.09.73-1.58.47-1,.85-1.81,1.17-2.38a5.76,5.76,0,0,1,.39-.66l.14-.23v.89c0,.57,0,1.42-.08,2.5A22.12,22.12,0,0,1,945,290c-.14.74-.44,1.49-.68,2.3a25.1,25.1,0,0,1-1.08,2.42l-.66,1.25-.8,1.24a28.81,28.81,0,0,1-1.84,2.48c-.68.81-1.45,1.58-2.22,2.39s-1.65,1.53-2.56,2.25-1.82,1.46-2.82,2.1-2,1.35-3,2l-3.2,1.8-3.31,1.63c-1.13.51-2.27,1-3.39,1.47s-2.3.87-3.44,1.3-2.3.73-3.43,1.1-2.29.6-3.41.88c-2.27.49-4.47.9-6.57,1.14s-4.11.4-6,.47c-3.7.14-6.79.05-9,.11-1.08,0-1.92.06-2.5.12Z"
              transform="translate(-394.29 -137.96)"/>
        <path class="cls-6"
              d="M951.48,338.67s-.48.88-1.37,2.4c-.47.73-1,1.64-1.76,2.65s-1.51,2.14-2.51,3.29-2.05,2.42-3.28,3.67-2.59,2.52-4.07,3.78a57.37,57.37,0,0,1-4.87,3.59A40.22,40.22,0,0,1,928,361.1a28.09,28.09,0,0,1-6.48,2.09,19.77,19.77,0,0,1-7.32,0,14.48,14.48,0,0,1-6.86-3.45,13.17,13.17,0,0,1-3.62-5.68,18,18,0,0,1-.7-2.65,12.64,12.64,0,0,1-.15-2.33,11.87,11.87,0,0,1,.3-2c.2-.59.41-1.13.62-1.61a9,9,0,0,1,1.44-2.1,4.74,4.74,0,0,1,.52-.51l.19-.17v.7c0,.45,0,1.12,0,2,0,.43.06.9.09,1.41s.16,1.05.25,1.64.29,1.19.45,1.84a17.87,17.87,0,0,0,.78,1.94,10.07,10.07,0,0,0,2.88,3.67,10.74,10.74,0,0,0,4.76,2.1,22.1,22.1,0,0,0,11.22-1.41,41.26,41.26,0,0,0,5.31-2.33,54.16,54.16,0,0,0,4.85-2.84,72.85,72.85,0,0,0,8-6c2.22-1.9,3.95-3.61,5.16-4.81Z"
              transform="translate(-394.29 -137.96)"/>
        <path class="cls-2"
              d="M1040.19,557.25l-.84,3c-.56,2-1.29,4.93-2.54,8.57-.6,1.83-1.22,3.88-2.09,6s-1.68,4.53-2.84,7a74.7,74.7,0,0,1-9,15.55A45.92,45.92,0,0,1,1006.73,611c-6.84,3.29-14.89,4.69-23.13,4.7a86.36,86.36,0,0,1-12.49-1.35c-4.19-.68-8.41-1.5-12.65-2.39-8.48-1.78-17.06-3.79-25.61-5.88-34.21-8.37-68.16-17.8-93.94-23.55a174.49,174.49,0,0,0-17.73-3.21c-1.33-.17-2.63-.13-3.88-.25a8.54,8.54,0,0,1-3.44-1,13,13,0,0,1-4.59-4.33,29.44,29.44,0,0,1-3.69-8.11c-.29-1-.49-1.75-.61-2.27s-.19-.79-.19-.79l1.64,2.81a35.61,35.61,0,0,0,5.09,6.82,9.66,9.66,0,0,0,4,2.66,5.53,5.53,0,0,0,1.05.25c.18,0,.25,0,.37,0h.6l.47,0h.21l1.12-.06c.76,0,1.53,0,2.23,0a142.33,142.33,0,0,1,18.44,2.37c6.59,1.15,13.67,2.49,21.08,4.16l11.41,2.54c3.88.88,7.81,1.92,11.82,2.91l12.19,3.1L909,593.43l25.3,6.86c8.46,2.3,17,4.44,25.28,6.47,4.16,1,8.3,2,12.36,2.75,2,.41,4,.75,6,1.07l2.78.37c.93.12,2,.15,3,.24l2.74,0a27.18,27.18,0,0,0,2.86,0l2.81-.17c.94,0,1.83-.25,2.74-.35a39.27,39.27,0,0,0,25.89-14.84,77.38,77.38,0,0,0,9.59-14.63c1.28-2.32,2.25-4.61,3.2-6.71s1.72-4.07,2.42-5.86c1.45-3.54,2.43-6.43,3.12-8.38Z"
              transform="translate(-394.29 -137.96)"/>
        <path class="cls-2"
              d="M1040.19,557.25s-14.27-8-37.63-13.41c17.64,4.95,33.48,22.79,29.33,38.1A154.08,154.08,0,0,0,1040.19,557.25Z"
              transform="translate(-394.29 -137.96)"/>
        <path class="cls-14"
              d="M803.51,586.73c-16.33,13.77-17,157.16-30.44,219.94,13.9,8.42,21.06,0,21.06,0s2.11-49.93,21.49-94.49,24.19-60,18.33-85.84S823,570.3,803.51,586.73Z"
              transform="translate(-394.29 -137.96)"/>
        <path class="cls-2"
              d="M794.13,806.67s.26-6.06,1.41-15.82h0a15.3,15.3,0,0,1-14.39,10.76c-1.36-2,.68-4.77-6.39-3.63q-.81,4.56-1.69,8.69C787,815.09,794.13,806.67,794.13,806.67Z"
              transform="translate(-394.29 -137.96)"/>
        <path class="cls-2"
              d="M794.13,806.67s0-.86-.08-2.48-.09-4,0-7,.19-6.67.43-10.87c.13-2.1.25-4.33.46-6.68.09-1.18.18-2.39.28-3.63s.29-2.49.43-3.78c.29-2.57.65-5.25,1.06-8s.85-5.63,1.34-8.57c1-5.87,2.26-12,3.76-18.41.79-3.17,1.74-6.36,2.62-9.61s2-6.49,3.13-9.76,2.39-6.6,3.64-9.72,2.5-6.35,3.76-9.52,2.43-6.33,3.61-9.49,2.38-6.28,3.46-9.38q.81-2.32,1.6-4.64t1.46-4.58c.46-1.51.91-3,1.37-4.49s.78-3,1.18-4.42.63-2.9,1-4.33.43-2.85.73-4.24.36-2.77.55-4.14.18-2.72.28-4.06a89.44,89.44,0,0,0-1-15.4c-.31-2.37-.78-4.93-1.14-7.21s-.65-4.52-.94-6.57-.4-4-.62-5.79-.24-3.46-.35-4.95c-.13-3-.24-5.41-.25-7.08,0-.84,0-1.49,0-1.93v-.67s.32.79.84,2.31,1.25,3.76,2,6.65,1.67,6.41,2.6,10.48,2,8.66,3,13.68a81.59,81.59,0,0,1,1.9,16.45A76.23,76.23,0,0,1,834,663.15,156.5,156.5,0,0,1,828.07,682c-2.37,6.31-5,12.66-7.63,19l-4.05,9.42c-1.36,3.13-2.59,6.3-3.88,9.41s-2.31,6.3-3.43,9.41-2,6.24-3,9.32c-1.79,6.16-3.37,12.16-4.66,17.91-.64,2.87-1.28,5.66-1.79,8.38s-1,5.34-1.47,7.87-.85,5-1.19,7.28-.66,4.51-.93,6.58c-.56,4.13-.94,7.75-1.24,10.73C794.28,803.24,794.13,806.67,794.13,806.67Z"
              transform="translate(-394.29 -137.96)"/>
        <path class="cls-6"
              d="M773.07,806.67c1.93-9.1,3.34-18.29,4.58-27.5s2.25-18.45,3.19-27.69c1.86-18.5,3.37-37,4.9-55.55s3.06-37,5.1-55.52c1-9.23,2.2-18.46,3.8-27.62.8-4.57,1.74-9.13,3-13.61a55.16,55.16,0,0,1,2.22-6.61,16,16,0,0,1,3.69-5.84h0a31.82,31.82,0,0,1,6-4.36c2.12-1.26,4.32-2.4,6.53-3.48-.91.94-1.83,1.84-2.74,2.72l-1.37,1.29c-.45.43-.88.88-1.33,1.29-.89.83-1.72,1.71-2.52,2.54a17.06,17.06,0,0,0-2,2.49l-.22.2a16.34,16.34,0,0,0-1,2.05c-.32.87-.6,1.81-.92,2.78-.62,2-1.06,4.09-1.55,6.23-.92,4.3-1.59,8.78-2.13,13.29s-1,9.06-1.5,13.63-.78,9.16-1.32,13.73-.91,9.19-1.33,13.79l-1.49,13.81c-.47,4.61-.95,9.22-1.49,13.83l-1.53,13.85c-.52,4.62-1,9.24-1.57,13.86l-1.69,13.86c-.57,4.63-1.13,9.25-1.82,13.86l-2,13.84c-.71,4.62-1.43,9.23-2.19,13.83s-1.55,9.21-2.52,13.78-1.91,9.15-3,13.7S774.42,802.21,773.07,806.67Z"
              transform="translate(-394.29 -137.96)"/>
        <path class="cls-13"
              d="M759.79,826.26s-.52-2.85-5-5.16c5.9-.74,16.11-7.9,16.11-23.28,0-3.37,8.22,2.21,8.43,7.69S779.6,826.26,759.79,826.26Z"
              transform="translate(-394.29 -137.96)"/>
        <path class="cls-12"
              d="M701.75,627.7c0,12.86,9.3,16.75,11.82,15.52a2.59,2.59,0,0,1,.24,1.84s-8.69,5.4-12.06,5.71-24.75-5-40-25.38c4.42-4.22,10.95-6.43,14-5.06S687.64,634.45,701.75,627.7Z"
              transform="translate(-394.29 -137.96)"/>
        <path class="cls-5" d="M698.38,633.08a1.79,1.79,0,1,1-1.79-1.79A1.79,1.79,0,0,1,698.38,633.08Z"
              transform="translate(-394.29 -137.96)"/>
        <path class="cls-5" d="M691.92,633.08a1.79,1.79,0,1,1-1.79-1.79A1.79,1.79,0,0,1,691.92,633.08Z"
              transform="translate(-394.29 -137.96)"/>
        <path class="cls-5" d="M686.48,631.29a1.79,1.79,0,1,1-1.79-1.79A1.79,1.79,0,0,1,686.48,631.29Z"
              transform="translate(-394.29 -137.96)"/>
        <path class="cls-5" d="M681.05,627.7a1.8,1.8,0,1,1-1.8-1.79A1.81,1.81,0,0,1,681.05,627.7Z"
              transform="translate(-394.29 -137.96)"/>
        <path class="cls-5" d="M676.53,623.74a1.79,1.79,0,1,1-1.79-1.8A1.79,1.79,0,0,1,676.53,623.74Z"
              transform="translate(-394.29 -137.96)"/>
        <path class="cls-24"
              d="M696.59,634a.91.91,0,0,1-.91-.83,14.45,14.45,0,0,1,3.12-11,6.66,6.66,0,0,1,4.68-2.49h0a.92.92,0,0,1,0,1.83,5,5,0,0,0-3.35,1.88,12.76,12.76,0,0,0-2.66,9.58.93.93,0,0,1-.83,1Z"
              transform="translate(-394.29 -137.96)"/>
        <path class="cls-24"
              d="M690.13,633.8a.72.72,0,0,1-.72-.72c0-5.28,2.38-11.62,5.31-13.85a3.13,3.13,0,0,1,2.81-.72.72.72,0,1,1-.4,1.39,1.81,1.81,0,0,0-1.53.48c-2.29,1.74-4.8,7.38-4.75,12.69a.73.73,0,0,1-.72.73Z"
              transform="translate(-394.29 -137.96)"/>
        <path class="cls-24"
              d="M684.69,632.2l-.16,0a.91.91,0,0,1-.73-1.06c1.67-9.26,5.39-14.41,10.23-14.18a.9.9,0,0,1,.86.95.91.91,0,0,1-.95.87c-3.73-.2-6.88,4.55-8.35,12.69A.92.92,0,0,1,684.69,632.2Z"
              transform="translate(-394.29 -137.96)"/>
        <path class="cls-24"
              d="M679.25,628.43a.76.76,0,0,1-.32-.08.72.72,0,0,1-.32-1c3.28-6.56,8.11-13,11.54-12.61a.71.71,0,0,1,.63.8.7.7,0,0,1-.8.63c-1.93-.19-6.24,4.15-10.08,11.83A.73.73,0,0,1,679.25,628.43Z"
              transform="translate(-394.29 -137.96)"/>
        <path class="cls-24"
              d="M674.74,624.66a1,1,0,0,1-.51-.15.93.93,0,0,1-.27-1.28c3.46-5.28,7.08-10.09,13.33-11a.94.94,0,0,1,1.05.78.93.93,0,0,1-.79,1c-5,.72-8.18,4.28-12,10.18A.93.93,0,0,1,674.74,624.66Z"
              transform="translate(-394.29 -137.96)"/>
        <path class="cls-5"
              d="M758,840.37c-24.58,3.06-43.15,2.79-47.25-7.58a22.35,22.35,0,0,0-2.32,12.27c54.94,9.56,86.47-5.47,90.5-11.38.57-2.57.36-6.39-.12-10.1C790.12,834.25,779.24,837.73,758,840.37Z"
              transform="translate(-394.29 -137.96)"/>
        <path class="cls-5"
              d="M708.43,845.06a201.59,201.59,0,0,0,34.6,3.09c4.11-17.31,3.79-25.37-8.06-28C718.54,818.83,707.13,831.26,708.43,845.06Z"
              transform="translate(-394.29 -137.96)"/>
        <path class="cls-12"
              d="M759.37,837.42a18.68,18.68,0,0,0-3.58-12.53s14.54-1.29,17.28-7.12,2.95-14,2.95-14,15,1.58,20.64-3.37c-.82,6-.95,7.26.21,10.95a41.9,41.9,0,0,1,1.41,8.71S792.45,834.58,759.37,837.42Z"
              transform="translate(-394.29 -137.96)"/>
        <path class="cls-5" d="M780.73,809.52a1.85,1.85,0,1,1-1.85-1.85A1.85,1.85,0,0,1,780.73,809.52Z"
              transform="translate(-394.29 -137.96)"/>
        <path class="cls-5" d="M779.73,815.73a1.85,1.85,0,1,1-1.85-1.85A1.85,1.85,0,0,1,779.73,815.73Z"
              transform="translate(-394.29 -137.96)"/>
        <path class="cls-5" d="M776.76,821.31a1.85,1.85,0,1,1-1.84-1.85A1.84,1.84,0,0,1,776.76,821.31Z"
              transform="translate(-394.29 -137.96)"/>
        <path class="cls-5" d="M771.13,825a1.85,1.85,0,1,1-1.85-1.85A1.85,1.85,0,0,1,771.13,825Z"
              transform="translate(-394.29 -137.96)"/>
        <path class="cls-5" d="M763.86,827.44a1.85,1.85,0,1,1-1.85-1.85A1.84,1.84,0,0,1,763.86,827.44Z"
              transform="translate(-394.29 -137.96)"/>
        <path class="cls-24"
              d="M778.88,810.43h0c-6-.2-9.77-1.26-11.09-3.14a3,3,0,0,1-.36-2.77.92.92,0,0,1,1.16-.58.91.91,0,0,1,.58,1.15,1.19,1.19,0,0,0,.13,1.15c.91,1.3,4.51,2.19,9.64,2.36a.92.92,0,0,1,0,1.83Z"
              transform="translate(-394.29 -137.96)"/>
        <path class="cls-24"
              d="M777.88,816.65h-.07c-8.62-.69-12.35-4.21-12.16-7.18a.91.91,0,1,1,1.82.11c-.1,1.7,2.65,4.62,10.49,5.25a.92.92,0,0,1-.08,1.83Z"
              transform="translate(-394.29 -137.96)"/>
        <path class="cls-24"
              d="M774.91,822.23a.8.8,0,0,1-.42-.11c-7.49-3.94-10.26-6.12-11-8.61a.91.91,0,0,1,.63-1.13.93.93,0,0,1,1.13.63c.53,1.88,3.25,3.91,10.05,7.49a.92.92,0,0,1,.39,1.24A.94.94,0,0,1,774.91,822.23Z"
              transform="translate(-394.29 -137.96)"/>
        <path class="cls-24"
              d="M769.28,825.93a.9.9,0,0,1-.81-.5c-2.88-5.58-6.77-7.86-7.78-8a.92.92,0,0,1-.77-1,.93.93,0,0,1,1.05-.77c1.53.24,5.95,2.83,9.13,9a.93.93,0,0,1-.4,1.24A.9.9,0,0,1,769.28,825.93Z"
              transform="translate(-394.29 -137.96)"/>
        <path class="cls-24"
              d="M762,828.35a.91.91,0,0,1-.91-.84c-.32-4-2.06-7.5-3.55-8.5a.9.9,0,0,0-.62-.21.92.92,0,0,1-.56-1.75,2.49,2.49,0,0,1,2.2.44c1.87,1.26,4,5,4.36,9.87a.92.92,0,0,1-.84,1Z"
              transform="translate(-394.29 -137.96)"/>
        <path class="cls-7"
              d="M889.26,461.59c-7.65,0-7-4-17.72-9.11s-12.64-6.74-17.7-4.63,4.21,9.9,4,18.33,5.74,7.8,14.67,12.22,17,2.46,19.68-1.09S896,461.59,889.26,461.59Z"
              transform="translate(-394.29 -137.96)"/>
        <path class="cls-2"
              d="M862.36,474.11s.51.12,1.38.28l1.58.29c.6.12,1.31.2,2,.38,1.49.33,3.25.74,5.14,1.32l.7.26.63.2c.46.14.95.33,1.39.44s.85.21,1.27.32l1.33.28c.9.14,1.78.24,2.65.32s1.7.08,2.51.11,1.58,0,2.32,0,1.42-.1,2.05-.2,1.18-.27,1.7-.37l.76-.14a6.32,6.32,0,0,0,.7-.09c.47,0,.86-.09,1.17-.12l.5,0a8.08,8.08,0,0,1-2.24,1.9,11.7,11.7,0,0,1-1.87.86,15.82,15.82,0,0,1-5,.87,21.48,21.48,0,0,1-5.83-.76l-1.44-.43-1.4-.52c-.91-.39-1.79-.79-2.64-1.21-1.7-.8-3.33-1.45-4.74-2s-2.57-1-3.38-1.34S862.36,474.11,862.36,474.11Z"
              transform="translate(-394.29 -137.96)"/>
        <path class="cls-7"
              d="M858.29,446.58c-5.92.42-13.28-4.1-14.84-2.73s-1.27,7.69.89,8.85,3-.95,7.65.63,6.09,3.58,7.88.84S862.8,446.26,858.29,446.58Z"
              transform="translate(-394.29 -137.96)"/>
        <path class="cls-7"
              d="M857.5,452c-5.76,1.5-15.85,1.81-18.87,4.15a31.77,31.77,0,0,1-8.18,4.14c-1.4.56-3.76,2.37-5.31,3.24-.37,1,2.51,3.56,6.05,3.72,1.84,1.58.09,3.48,5.53,4.18s11.49,1.42,13,2.14,8.43,1.15,13.87,1,5.37-4.85,4.11-7.29.43-7.7-1.47-9.38-1.11-5.08-3.91-5.95S859.77,451.41,857.5,452Z"
              transform="translate(-394.29 -137.96)"/>
        <path class="cls-7"
              d="M844.68,443.63c-3.41.86-10,1.76-11.77,2.31s-2.87,3.7-2,5.91,4.46,1.9,7.42,1.43,3.93-1.06,6.82-.58C847,453,850.13,442.26,844.68,443.63Z"
              transform="translate(-394.29 -137.96)"/>
        <path class="cls-7"
              d="M834.7,445.74c1.33.45,2.7,3.93,1.59,6.38s-2.13,1.82-3.32,3.71-3.71,2.69-7.5,3.48c-1.9-.32-4.11-2.93-4.35-3.95s1-2.83,1-2.83,4.74-1.46,5.45-3.34S832.4,445,834.7,445.74Z"
              transform="translate(-394.29 -137.96)"/>
        <path class="cls-6"
              d="M862.06,456.91a3.31,3.31,0,0,1-.07.46,4.16,4.16,0,0,1-.35,1.11,4,4,0,0,1-1,1.32,7.05,7.05,0,0,1-2,1.05,15.24,15.24,0,0,1-4.8.91,24.43,24.43,0,0,1-2.55-.06,25,25,0,0,1-2.65-.26c-.88-.12-1.76-.23-2.59-.39s-1.6-.3-2.32-.39a21.74,21.74,0,0,0-4.15-.14c-.64,0-1.31,0-1.85,0s-1-.06-1.42-.09a11.71,11.71,0,0,1-1.22-.21,23,23,0,0,0,4.24-.73,19,19,0,0,1,4.35-.65c1.62,0,3.34.15,5.06.21s3.45.06,5.06.05a25.38,25.38,0,0,0,4.4-.34,9,9,0,0,0,2.86-1.21Z"
              transform="translate(-394.29 -137.96)"/>
        <path class="cls-6"
              d="M861.85,466.23s-.09.17-.26.43a2.93,2.93,0,0,1-1,.93c-.23.13-.48.28-.77.42a6.73,6.73,0,0,1-.93.32,13.89,13.89,0,0,1-2.19.28,21.08,21.08,0,0,1-2.54.06,19.83,19.83,0,0,1-2.74-.19c-.94-.1-1.89-.27-2.82-.46l-1.37-.25-.72-.13-.63-.1a36.63,36.63,0,0,0-5.51-.22c-1,0-1.95-.08-2.86-.2a17.5,17.5,0,0,1-2.57-.56c-.75-.21-1.38-.5-1.86-.6a1.44,1.44,0,0,0-.53-.06l-.3.16a1.44,1.44,0,0,0-.25.18,3.43,3.43,0,0,0-.66.71,1.68,1.68,0,0,0-.19.31,2.06,2.06,0,0,1,.1-.35,4.12,4.12,0,0,1,.49-.88,1.57,1.57,0,0,1,1.32-.73,14.58,14.58,0,0,1,2,.22,19.63,19.63,0,0,0,2.4.19,25.57,25.57,0,0,0,2.69-.19,32.67,32.67,0,0,1,5.83-.37c2,.1,4,.47,5.8.72s3.57.5,5.06.62c.75.06,1.43.08,2,.09a14,14,0,0,0,1.57-.08,5.77,5.77,0,0,0,1-.18Z"
              transform="translate(-394.29 -137.96)"/>
        <path class="cls-6"
              d="M862.36,451.93a3.68,3.68,0,0,1-.53.21c-.33.13-.82.24-1.32.42a1.52,1.52,0,0,0-.61.31,2.87,2.87,0,0,1-.62.44,16.51,16.51,0,0,1-2.48,1.05,38.53,38.53,0,0,1-6.41,1.58c-1.15.21-2.34.35-3.53.48s-2.37.29-3.52.46a16.57,16.57,0,0,0-3,.73,10.77,10.77,0,0,0-1.38.77c-.61.36-1.17.63-1.74.9a37.78,37.78,0,0,1-6.34,2,15.93,15.93,0,0,0-2.25.83l-1.81.82a15.62,15.62,0,0,1-1.64.62s.55-.3,1.46-.9l1.64-1.09a15,15,0,0,1,2.21-1.25,41,41,0,0,0,5.83-2.59c.5-.3,1-.6,1.51-.95s1-.71,1.5-1a14.23,14.23,0,0,1,3.51-1.18c2.43-.56,4.91-.89,7.21-1.23s4.47-.65,6.3-1c.91-.21,1.74-.42,2.46-.65a3.42,3.42,0,0,1,1.94-.15,12.26,12.26,0,0,1,1.22.31Z"
              transform="translate(-394.29 -137.96)"/>
        <path class="cls-6"
              d="M889.26,461.59a16.6,16.6,0,0,1-2,.1,5.83,5.83,0,0,1-1-.07,7,7,0,0,1-1-.17,9.35,9.35,0,0,1-2-.68,16,16,0,0,1-1.82-1c-1.15-.73-2.25-1.47-3.33-2.18a36.44,36.44,0,0,0-3.37-1.92c-1.15-.58-2.33-1.11-3.52-1.59s-2.49-1-3.71-1.5c-2.43-1-4.9-2.18-7.18-2.9l-1.1-.88s0,.08-.15,0a1.87,1.87,0,0,0-.4,0l-.86.07c-.31,0-.76,0-1.13,0s-.71,0-1-.06c-.69-.05-1.37-.14-2-.25a61.12,61.12,0,0,1-7.3-1.95l-1.22-.79a.92.92,0,0,0,.46.29c.11,0,0,0-.15,0l-.5.11-.38-.06c-.11,0-.2,0-.1,0a1.28,1.28,0,0,0,.35-.1,1.62,1.62,0,0,0,.31-.19l.21-.16-.06.07-.47.52-.79.14c-1.54.26-3.07.56-4.62.75s-3.09.45-4.64.65l-.61.07-.19-.05a2.31,2.31,0,0,0-.39-.06,3.7,3.7,0,0,0-.56,0,6.31,6.31,0,0,0-1.32.35,7.69,7.69,0,0,0-2.28,1.36l-.13.13-.06.05h0c.06-.15-.09.2-.08.17h0v0l0,0-.07.1-.16.21-.29.36a3.17,3.17,0,0,1-.54.49,5,5,0,0,1-1,.59c-.33.15-.66.26-1,.37a9.53,9.53,0,0,1-1.94.39,9.27,9.27,0,0,1-2,0,19.92,19.92,0,0,0,3.33-1.41,7.35,7.35,0,0,0,1.48-1.05,2.51,2.51,0,0,0,.55-.7,5.21,5.21,0,0,1,.44-.8,7.8,7.8,0,0,1,2.83-2.19,6.68,6.68,0,0,1,3.5-.75h0l9.18-1.7h0a.91.91,0,0,1,.64-.31,3.05,3.05,0,0,1,.74,0h0a3,3,0,0,1,1.23-.06,1.78,1.78,0,0,1,1,.6h0c2.33.72,4.63,1.57,7,2.06a17.09,17.09,0,0,0,3.63.39,6.6,6.6,0,0,1,1.83.05,2.23,2.23,0,0,1,1.48,1h0c2.5.91,4.86,2.15,7.27,3.28l3.59,1.72c1.2.58,2.38,1.2,3.52,1.88a38.15,38.15,0,0,1,3.32,2.2c1.07.79,2.1,1.63,3.15,2.44a14.91,14.91,0,0,0,1.66,1.1,8.19,8.19,0,0,0,1.82.8,5.43,5.43,0,0,0,1,.25,6.59,6.59,0,0,0,1,.16A18.62,18.62,0,0,0,889.26,461.59Z"
              transform="translate(-394.29 -137.96)"/>
        <path class="cls-2"
              d="M831.19,467.26l.37.24a3.63,3.63,0,0,1,.87,1,3,3,0,0,0,1.11,1.26,5.57,5.57,0,0,0,2.09.43c.82.07,1.81.05,2.89.07l3.34,0,3.58.19a33.22,33.22,0,0,1,3.86.45l.55.12a5.27,5.27,0,0,1,.64.19l.19.07.09,0-.13-.05h0l.22.06c.18.06.14,0,.21,0,.34,0,.94.14,1.47.18,1.11.08,2.25.14,3.35.26s2.18.19,3.2.3,2,.24,2.88.35,1.82.18,2.28.28,1.1.17,1.57.2a6,6,0,0,0,1.79-.12,4.19,4.19,0,0,1-.29.33,3.82,3.82,0,0,1-1,.75,5.62,5.62,0,0,1-1.84.57,21.3,21.3,0,0,1-2.5.11c-1.84,0-4,0-6.27-.15-1.15-.07-2.33-.16-3.52-.32a15.58,15.58,0,0,1-1.79-.31c-.6-.14-1.15-.44-1.75-.56-1.19-.29-2.4-.48-3.59-.67l-3.5-.49-3.28-.43c-1.05-.13-2-.24-2.94-.43a5.49,5.49,0,0,1-2.29-1,3.69,3.69,0,0,1-1-1.63,4,4,0,0,0-.63-1.07Z"
              transform="translate(-394.29 -137.96)"/>
        <rect class="cls-8" x="164.16" y="32.57" width="9.16" height="10.14"/>
        <rect class="cls-25" x="77.53" y="34.14" width="164.32" height="220.39" rx="8.44"/>
        <rect class="cls-16" x="66.57" y="34.14" width="164.32" height="220.39" rx="8.44"/>
        <path class="cls-5" d="M636.13,186.67v-6.12a8.44,8.44,0,0,0-8.44-8.45H469.3a8.44,8.44,0,0,0-8.44,8.45v6.12Z"
              transform="translate(-394.29 -137.96)"/>
        <path class="cls-5" d="M460.86,330.45v53.6a8.45,8.45,0,0,0,8.44,8.45H627.69a8.45,8.45,0,0,0,8.44-8.45v-53.6Z"
              transform="translate(-394.29 -137.96)"/>
        <rect class="cls-2" x="66.57" y="190.28" width="175.27" height="2.21"/>
        <rect class="cls-5" x="66.57" y="192.5" width="175.27" height="2.21"/>
        <path class="cls-2" d="M468,392.39a9.08,9.08,0,0,0,1.28.11h91.84V278.59l-56.88-18.52Z"
              transform="translate(-394.29 -137.96)"/>
        <path class="cls-25"
              d="M561.14,278.59V260.07H504.26c-33,69.17-33,140.61,0,209.78h64.88C539.11,406.84,536.45,341.94,561.14,278.59Z"
              transform="translate(-394.29 -137.96)"/>
        <path class="cls-2"
              d="M498.85,457.76q2.53,6.06,5.41,12.09h64.88q-3.79-8-7-16l-7.32,1.74C537.76,467.28,510.19,465.29,498.85,457.76Z"
              transform="translate(-394.29 -137.96)"/>
        <g class="cls-26">
            <path d="M561.14,278.59V260.07c-33,69.17-33,140.61,0,209.78h8C539.11,406.84,536.45,341.94,561.14,278.59Z"
                  transform="translate(-394.29 -137.96)"/>
            <path d="M547.34,469.85h0Z" transform="translate(-394.29 -137.96)"/>
            <path d="M555.57,469.85h0Z" transform="translate(-394.29 -137.96)"/>
        </g>
        <path class="cls-27"
              d="M561.14,260.07H504.26a266.64,266.64,0,0,0-13.69,34.67C492.07,305.83,507.68,318,561.14,260.07Z"
              transform="translate(-394.29 -137.96)"/>
        <circle class="cls-8" cx="164.16" cy="14.85" r="14.85"/>
        <path class="cls-5" d="M556.38,152.73a5.69,5.69,0,1,1-5.67-6.13A5.92,5.92,0,0,1,556.38,152.73Z"
              transform="translate(-394.29 -137.96)"/>
        <path class="cls-11"
              d="M555.35,152.8c0,2.58-1.79,4.67-4,4.67s-4-2.09-4-4.67,1.79-4.67,4-4.67S555.35,150.22,555.35,152.8Z"
              transform="translate(-394.29 -137.96)"/>
        <path class="cls-5"
              d="M553.24,149.5c0,.6-.84,1.1-1.89,1.1s-1.88-.5-1.88-1.1.84-1.1,1.88-1.1S553.24,148.89,553.24,149.5Z"
              transform="translate(-394.29 -137.96)"/>
        <path class="cls-27"
              d="M558.45,138a14.13,14.13,0,0,0-2.45.22,14.51,14.51,0,0,0-.18,2.2,14.85,14.85,0,0,0,14.85,14.85,14.13,14.13,0,0,0,2.45-.22,14.51,14.51,0,0,0,.18-2.2A14.85,14.85,0,0,0,558.45,138Z"
              transform="translate(-394.29 -137.96)"/>
        <rect class="cls-8" x="159.58" y="28.26" width="9.16" height="5.89"/>
        <rect class="cls-8" x="155" y="32.57" width="9.16" height="10.14"/>
        <rect class="cls-27" x="155" y="32.57" width="7.27" height="10.14"/>
        <polygon class="cls-25"
                 points="174.85 331.9 221.83 337.97 221.83 344.08 77.53 344.08 77.53 336.82 109.97 331.9 174.85 331.9"/>
        <polygon class="cls-2"
                 points="221.83 337.97 179.91 335.57 159.69 336.82 159.69 344.08 221.83 344.08 221.83 337.97"/>
        <rect class="cls-10" x="77.53" y="336.82" width="82.16" height="7.26"/>
        <path class="cls-27"
              d="M561.14,260.07l-3.81,8.52-2,4.5-2.08,5.41q-1.12,2.89-2.37,6.15c-.44,1.08-.82,2.21-1.18,3.37s-.76,2.34-1.16,3.55q-1.17,3.65-2.45,7.56c-.71,2.65-1.43,5.4-2.18,8.22q-.57,2.11-1.14,4.29c-.38,1.44-.63,2.94-.95,4.44-.62,3-1.25,6.07-1.89,9.18q-.7,4.73-1.42,9.59c-.21,1.63-.54,3.25-.65,4.9s-.29,3.31-.44,5c-.76,6.64-.78,13.44-1,20.23.23,6.79.25,13.59,1,20.23.15,1.67.29,3.33.44,5s.44,3.27.65,4.9q.72,4.86,1.42,9.59,1,4.68,1.89,9.18c.32,1.5.57,3,.95,4.44s.76,2.88,1.14,4.29c.75,2.82,1.47,5.57,2.18,8.22s1.67,5.13,2.45,7.56c.4,1.21.78,2.39,1.16,3.55s.74,2.29,1.18,3.37q1.25,3.25,2.37,6.15l2.08,5.41,2,4.5,3.81,8.52s-.41-.74-1.16-2.15-1.88-3.46-3.26-6.11l-2.28-4.39c-.74-1.64-1.55-3.41-2.41-5.3-1.71-3.8-3.79-8-5.47-12.9l-2.81-7.52-2.57-8.2-1.34-4.3c-.45-1.45-.77-3-1.17-4.45-.75-3-1.53-6.1-2.31-9.24q-.84-4.79-1.71-9.71c-.26-1.64-.64-3.28-.8-5s-.39-3.36-.58-5.05c-1-6.76-1.18-13.68-1.59-20.61,0-3.47,0-6.94,0-10.4a49.53,49.53,0,0,1,.19-5.17c.12-1.71.25-3.42.38-5.13a185.08,185.08,0,0,1,2.48-19.91,180.31,180.31,0,0,1,4.4-18.23c.86-2.85,1.64-5.64,2.5-8.3s1.94-5.15,2.85-7.58c.46-1.21.91-2.4,1.34-3.55s.87-2.3,1.37-3.38c.93-2.18,1.91-4.22,2.8-6.13s1.85-3.65,2.66-5.27,1.85-2.94,2.68-4.2c1.7-2.5,3.1-4.42,4.15-5.7.5-.65.93-1.13,1.21-1.45S561.14,260.07,561.14,260.07Z"
              transform="translate(-394.29 -137.96)"/>
        <polygon class="cls-8"
                 points="389.21 328.23 331.32 328.23 317.84 344.08 385.73 344.08 473.92 344.08 473.92 335.33 389.21 328.23"/>
        <polygon class="cls-6" points="389.21 328.23 331.32 328.23 317.84 344.08 385.73 344.08 389.21 328.23"/>
        <polygon class="cls-8" points="468.31 333.55 461.66 333.02 461.02 334.25 468.71 334.89 468.31 333.55"/>
        <polygon class="cls-8" points="459.62 332.82 452.97 332.29 452.33 333.52 460.02 334.17 459.62 332.82"/>
        <polygon class="cls-8" points="450.94 332.1 444.28 331.56 443.64 332.79 451.33 333.44 450.94 332.1"/>
        <polygon class="cls-8" points="442.25 331.37 435.59 330.83 434.96 332.07 442.65 332.71 442.25 331.37"/>
        <polygon class="cls-8" points="433.56 330.64 426.9 330.11 426.27 331.34 433.96 331.98 433.56 330.64"/>
        <polygon class="cls-8" points="424.87 329.91 418.22 329.38 417.58 330.61 425.27 331.25 424.87 329.91"/>
        <polygon class="cls-8" points="416.18 329.18 409.53 328.65 408.89 329.88 416.58 330.53 416.18 329.18"/>
        <polygon class="cls-8" points="407.5 328.45 400.84 327.92 400.2 329.15 407.89 329.8 407.5 328.45"/>
        <polygon class="cls-8" points="398.81 327.73 392.15 327.19 391.52 328.43 399.21 329.07 398.81 327.73"/>
        <rect class="cls-14" x="468.06" y="93.78" width="6.38" height="3.69"/>
        <rect class="cls-14" x="439.65" y="95.11" width="5.28" height="3.05"/>
        <rect class="cls-16" x="13.77" y="363.45" width="513.79" height="74.28"/>
        <rect class="cls-23" x="246.6" y="384.23" width="280.96" height="53.5"/>
        <path class="cls-6"
              d="M1106.82,292.77a6.39,6.39,0,0,1-.87,8.79c-1.84,1.59-3.61,3.13-4,3.53a38.32,38.32,0,0,0-2.55,3.05c-.93,1.07-1.74,2.38-2.67,3.7a88.94,88.94,0,0,0-10.27,21.57c-1.57,4.43-2.87,9.31-4.19,14.47s-2.42,10.7-3.36,16.52-1.77,11.92-2.45,18.26-1.23,12.93-1.67,19.72c-.9,13.57-1.41,27.94-1.5,42.83s-.08,30.31-.09,46-.31,31.65-1.38,47.64c-.57,8-1.33,16-2.57,23.94a144.08,144.08,0,0,1-5.47,23.52,73.26,73.26,0,0,1-11,21.67c-.61.82-1.28,1.6-1.93,2.39s-1.38,1.52-2.06,2.27l-.26.29-.34.32-.52.49-1,1c-.71.67-1.57,1.37-2.36,2a60.91,60.91,0,0,1-10,6.56,94.44,94.44,0,0,1-21.45,7.84,172.18,172.18,0,0,1-21.23,3.69,388.73,388.73,0,0,1-38.9,2l-2.23,0-2.12.05-4.33.13c-2.74.18-5.33.3-7.91.65a65,65,0,0,0-14,3,41.16,41.16,0,0,0-10.69,5.42c-.75.51-1.39,1.14-2.07,1.68l-1,.82,0,0-2.57,2.63c-.49.63-1,1.25-1.44,1.84a50.54,50.54,0,0,0-6.81,12.71l0,.09a5.3,5.3,0,0,1-6.57,3.46l-6.28-1.87a5.31,5.31,0,0,1-3.5-6.88c.11-.3.22-.6.33-.92.43-1,.92-2.14,1.45-3.39l.85-1.94,1.11-2.09a57.49,57.49,0,0,1,6.27-9.63c.7-.85,1.41-1.73,2.17-2.61l2.56-2.55c.45-.43.88-.88,1.35-1.3l1.5-1.21c1-.79,2-1.66,3.14-2.39a57.36,57.36,0,0,1,15.22-7.25,79.9,79.9,0,0,1,17.43-3.26c3-.32,6.19-.39,9.28-.49l4.33,0h1.28l1.1,0,2.22,0c11.84.27,24.47.46,37.53-.52a188.51,188.51,0,0,0,19.72-2.43,92.22,92.22,0,0,0,19.19-5.55,49.27,49.27,0,0,0,8.59-4.75l.91-.65a10.38,10.38,0,0,0,1-.72l2-1.68c.59-.57,1.21-1.11,1.79-1.71s1.14-1.22,1.68-1.86c4.42-5.11,7.7-11.59,10.17-18.53a134.61,134.61,0,0,0,5.59-22c1.35-7.59,2.26-15.37,3-23.18s1.18-15.69,1.53-23.56.36-15.72.43-23.52c0-3.91,0-7.8,0-11.67,0-1.94,0-3.87,0-5.79s-.08-3.86-.12-5.77c-.14-7.69-.28-15.29-.43-22.76-.13-15-.41-29.48-.09-43.31s.81-27,2.05-39.2c.53-6.12,1.35-12,2.22-17.62s1.92-11,3.25-16a117.09,117.09,0,0,1,9.55-26.2c1-1.8,1.85-3.52,2.91-5.07s1.89-3.08,3-4.39,1.93-2.53,2.88-3.7c.41-.46,1.57-1.67,2.87-3a5.73,5.73,0,0,1,8.62.47Z"
              transform="translate(-394.29 -137.96)"/>
        <path class="cls-5"
              d="M680,424c-6.89-8.07-9.8-21.5.36-31s11.54-23,.77-30.33c20.23,2.5,23.89,24.83,10.39,30.66S674.09,411.75,680,421c-.8-4-2.64-13.83,9.2-18,0,0-8.92,4.48-7.05,11.48s.57,9.62-1.75,11.94A2.55,2.55,0,0,0,680,424Z"
              transform="translate(-394.29 -137.96)"/>
        <polygon class="cls-16" points="13.77 437.73 13.77 721.42 29.88 721.42 37.14 436.51 13.77 437.73"/>
        <polygon class="cls-16" points="219.21 437.73 219.21 721.42 235.31 721.42 242.57 436.51 219.21 437.73"/>
        <polygon class="cls-16" points="504.57 437.7 504.57 714.62 519.78 714.62 526.64 436.51 504.57 437.7"/>
    </g>
</svg>
