<svg id="Layer_1" data-name="Layer 1" xmlns="http://www.w3.org/2000/svg" viewBox="0 0 150.8 99.49"><defs><style>.cls-1{fill:#fff;}</style></defs><path class="cls-1" d="M297.38,398.53q0,14.85-7.72,23.43-7.71,8-22.28,8H248.12a5.59,5.59,0,0,0-5.6,5.6v24a5.58,5.58,0,0,1-5.58,5.58H224.48a2.24,2.24,0,0,1-2.24-2.24V415.6a3.35,3.35,0,0,1,3.35-3.36h36.64q8,0,11.44-3.42,3.7-3.15,3.7-10.86a16,16,0,0,0-3-10.06l-.84-.85a16,16,0,0,0-10.15-3.1H225.59a3.34,3.34,0,0,1-3.35-3.34V377.1a10.24,10.24,0,0,1,10.29-10.29H266q15.71,0,23.43,8Q297.38,382.82,297.38,398.53Z" transform="translate(-222.24 -365.6)"/><path class="cls-1" d="M363.9,445.59H334.18a9.15,9.15,0,0,1-9.15-9.14v-61.7a9.15,9.15,0,0,0-9.14-9.15H315a10.24,10.24,0,0,0-10.29,10.28v78.86a9.15,9.15,0,0,0,9.14,9.14h50a9.15,9.15,0,0,0,0-18.29Z" transform="translate(-222.24 -365.6)"/></svg>