<svg id="Layer_1" data-name="Layer 1" xmlns="http://www.w3.org/2000/svg" viewBox="0 0 150.8 99.49"><defs><style>.cls-1{fill:#122d50;}</style></defs><path class="cls-1" d="M306.49,396.25q0,14.85-7.71,23.43-7.72,8-22.29,8H257.23a5.58,5.58,0,0,0-5.59,5.59v24a5.58,5.58,0,0,1-5.59,5.58H233.6a2.24,2.24,0,0,1-2.25-2.24V413.32a3.35,3.35,0,0,1,3.36-3.36h36.64q8,0,11.43-3.42,3.72-3.15,3.71-10.86a16,16,0,0,0-3-10.06l-.84-.85a16,16,0,0,0-10.16-3.1H234.71a3.34,3.34,0,0,1-3.36-3.34v-3.51a10.24,10.24,0,0,1,10.29-10.29h33.43q15.71,0,23.43,8Q306.48,380.54,306.49,396.25Z" transform="translate(-231.35 -363.32)"/><path class="cls-1" d="M373,443.32H343.29a9.15,9.15,0,0,1-9.14-9.15v-61.7a9.15,9.15,0,0,0-9.14-9.15h-.85a10.24,10.24,0,0,0-10.29,10.28v78.86A9.14,9.14,0,0,0,323,461.6h50a9.14,9.14,0,1,0,0-18.28Z" transform="translate(-231.35 -363.32)"/></svg>